<svg width="161" height="45" viewBox="0 0 161 45" fill="none" xmlns="http://www.w3.org/2000/svg">
<mask id="path-1-outside-1_130_1570" maskUnits="userSpaceOnUse" x="-0.800293" y="-0.800049" width="162" height="46" fill="black">
<rect fill="white" x="-0.800293" y="-0.800049" width="162" height="46"/>
<path d="M1.09034 29.7526C0.768306 29.7526 0.526777 29.6859 0.365758 29.5524C0.204739 29.4188 0.160825 29.1995 0.234015 28.8944L5.92092 6.15054C5.55497 6.62735 5.16706 7.08508 4.75719 7.52375C4.34732 7.96241 3.9155 8.40108 3.46172 8.83974C3.02258 9.25934 2.55416 9.698 2.05646 10.1557C1.74906 10.4228 1.49289 10.5086 1.28796 10.4132C1.08303 10.3179 0.900049 10.0985 0.73903 9.75522C0.592649 9.45006 0.534096 9.16397 0.563373 8.89696C0.592649 8.61087 0.746349 8.36293 1.02447 8.15314C1.88812 7.44746 2.6859 6.73224 3.4178 6.00749C4.16435 5.26367 4.84502 4.49124 5.45982 3.6902C6.07462 2.87009 6.60891 2.02136 7.0627 1.14403C7.23835 0.819804 7.39937 0.600472 7.54575 0.486037C7.69213 0.371602 7.92634 0.314384 8.24838 0.314384C8.58506 0.314384 8.82659 0.381138 8.97297 0.514647C9.13399 0.648153 9.17058 0.867485 9.08276 1.17264L7.85315 6.17914C8.42404 5.26367 9.01688 4.44356 9.63168 3.71881C10.2611 2.99406 10.8979 2.38374 11.542 1.88786C12.2007 1.3729 12.8521 0.981919 13.4961 0.714906C14.1549 0.447891 14.7989 0.314384 15.4284 0.314384C16.2627 0.314384 16.9947 0.505108 17.6241 0.886557C18.2682 1.24893 18.7659 1.8211 19.1172 2.60307C19.4685 3.38504 19.6442 4.36727 19.6442 5.54976C19.6442 6.46523 19.5124 7.3807 19.2489 8.29618C18.9854 9.21165 18.5975 10.089 18.0852 10.9282C17.5875 11.7674 16.98 12.5589 16.2627 13.3027C15.5455 14.0465 14.7257 14.7236 13.8035 15.3339C12.8813 15.9251 11.8786 16.4306 10.7954 16.8501C10.8832 17.2697 10.9711 17.6798 11.0589 18.0803C11.1614 18.4618 11.2565 18.8527 11.3443 19.2533C11.4468 19.6347 11.5493 20.0352 11.6517 20.4548C11.7688 20.8744 11.8933 21.3417 12.025 21.8566C12.2592 22.8103 12.4861 23.6304 12.7057 24.317C12.9399 24.9845 13.1668 25.5472 13.3864 26.0049C13.6059 26.4436 13.8255 26.7869 14.0451 27.0348C14.2646 27.2827 14.4842 27.4544 14.7038 27.5498C14.938 27.6451 15.1722 27.6928 15.4064 27.6928C15.6845 27.6928 15.8675 27.8072 15.9553 28.0361C16.0432 28.2459 16.0578 28.4938 15.9993 28.7799C15.9553 29.0469 15.8382 29.2853 15.6479 29.4951C15.4723 29.724 15.2454 29.8384 14.9673 29.8384C14.3964 29.8384 13.8841 29.6859 13.4303 29.3807C12.9911 29.0946 12.5886 28.656 12.2226 28.0647C11.8713 27.4544 11.5346 26.701 11.2126 25.8046C10.8906 24.9082 10.5685 23.8592 10.2465 22.6577C10.1001 22.0855 9.96836 21.5706 9.85125 21.1128C9.74879 20.6551 9.64632 20.2355 9.54385 19.854C9.44139 19.4535 9.33892 19.0435 9.23645 18.6239C9.14863 18.2043 9.04616 17.7465 8.92905 17.2507C8.63629 17.2125 8.36549 17.1267 8.11664 16.9932C7.86779 16.8406 7.67018 16.6403 7.5238 16.3924C7.39205 16.1445 7.32618 15.8584 7.32618 15.5342C7.32618 15.0955 7.45792 14.7331 7.72141 14.447C7.9849 14.1609 8.32157 14.0179 8.73144 14.0179C9.08276 14.0179 9.39015 14.1133 9.65364 14.304C9.93177 14.4947 10.1513 14.714 10.3124 14.962C11.1321 14.6187 11.9079 14.1991 12.6398 13.7032C13.3864 13.1882 14.0597 12.6256 14.6599 12.0153C15.2747 11.3859 15.8016 10.7279 16.2408 10.0413C16.6946 9.33563 17.0386 8.61087 17.2728 7.86705C17.5216 7.12323 17.646 6.36987 17.646 5.60697C17.646 4.90129 17.5436 4.33866 17.3386 3.91907C17.1484 3.49947 16.8776 3.19432 16.5262 3.00359C16.1749 2.81287 15.7651 2.71751 15.2966 2.71751C14.594 2.71751 13.8694 2.9273 13.1229 3.3469C12.3763 3.74741 11.6371 4.31959 10.9052 5.06341C10.1879 5.80723 9.49994 6.70363 8.84122 7.75262C8.18251 8.78253 7.57503 9.92687 7.01878 11.1856C6.47717 12.4444 6.00875 13.7795 5.61352 15.1908L2.21016 28.9516C2.15161 29.2186 2.0345 29.4188 1.85885 29.5524C1.68319 29.6859 1.42702 29.7526 1.09034 29.7526Z"/>
<path d="M15.0117 29.8384C14.8068 29.8384 14.6531 29.724 14.5506 29.4951C14.4481 29.2853 14.4115 29.0469 14.4408 28.7799C14.4555 28.4938 14.5433 28.2459 14.7043 28.0361C14.8653 27.8072 15.0995 27.6928 15.4069 27.6928C15.7875 27.6928 16.1901 27.5116 16.6146 27.1492C17.0391 26.7869 17.4782 26.2814 17.932 25.633C18.3712 24.9845 18.8249 24.2216 19.2934 23.3443C19.7618 22.467 20.2375 21.5133 20.7206 20.4834C20.8377 20.2355 20.9987 20.1306 21.2036 20.1687C21.4086 20.2069 21.5769 20.3309 21.7086 20.5407C21.8404 20.7314 21.8477 20.9507 21.7306 21.1986C21.1012 22.6291 20.501 23.8879 19.9301 24.975C19.3739 26.0621 18.8323 26.968 18.3053 27.6928C17.7637 28.3985 17.2294 28.9325 16.7024 29.2949C16.1608 29.6573 15.5972 29.8384 15.0117 29.8384Z"/>
<path d="M22.1917 29.8384C21.694 29.8384 21.2622 29.6668 20.8962 29.3235C20.5303 28.9802 20.2448 28.4938 20.0399 27.8645C19.835 27.2351 19.7325 26.4912 19.7325 25.633C19.7325 24.7556 19.835 23.8116 20.0399 22.8007C20.2448 21.7899 20.5522 20.7981 20.9621 19.8254C21.372 18.8527 21.8697 17.9659 22.4552 17.1648C23.0407 16.3638 23.7141 15.7249 24.4752 15.2481C25.2511 14.7522 26.1001 14.5042 27.0223 14.5042C27.5785 14.5042 28.1787 14.6377 28.8228 14.9048C29.4668 15.1527 30.045 15.5055 30.5574 15.9633L30.1621 17.9373C29.4449 17.4414 28.8081 17.1267 28.2519 16.9932C27.6956 16.8406 27.1833 16.7643 26.7149 16.7643C26.0854 16.7643 25.5072 16.955 24.9803 17.3365C24.4679 17.7179 24.0068 18.2234 23.597 18.8527C23.2017 19.4631 22.8651 20.1497 22.5869 20.9126C22.3088 21.6564 22.0965 22.4002 21.9502 23.144C21.8038 23.8879 21.7306 24.5649 21.7306 25.1752C21.7306 25.6521 21.7745 26.0716 21.8623 26.434C21.9502 26.7964 22.0746 27.0729 22.2356 27.2637C22.4113 27.4544 22.6089 27.5498 22.8285 27.5498C23.3701 27.5498 23.9849 27.1683 24.6729 26.4054C25.3608 25.6234 26.0928 24.4791 26.8686 22.9724C27.659 21.4657 28.4641 19.6347 29.2839 17.4795L30.0963 18.5381C29.1448 21.0938 28.2006 23.2108 27.2638 24.8892C26.3416 26.5485 25.456 27.7882 24.607 28.6083C23.758 29.4284 22.9529 29.8384 22.1917 29.8384ZM28.9545 29.8384C28.2958 29.8384 27.8054 29.6763 27.4834 29.3521C27.176 29.0469 26.9784 28.656 26.8905 28.1791C26.8173 27.6833 26.8173 27.1683 26.8905 26.6343C26.9637 26.0812 27.0662 25.5758 27.1979 25.118L29.6571 15.5342C29.7596 15.1527 29.8767 14.9048 30.0084 14.7903C30.1548 14.6759 30.3671 14.6187 30.6452 14.6187C31.099 14.6187 31.3844 14.714 31.5015 14.9048C31.6333 15.0764 31.6479 15.353 31.5455 15.7344L29.1302 25.0894C28.8813 26.0812 28.7642 26.7678 28.7788 27.1492C28.8081 27.5116 28.9911 27.6928 29.3278 27.6928C29.5327 27.6928 29.6864 27.8072 29.7889 28.0361C29.8913 28.2459 29.9279 28.4938 29.8987 28.7799C29.884 29.0469 29.7962 29.2853 29.6352 29.4951C29.4888 29.724 29.2619 29.8384 28.9545 29.8384Z"/>
<path d="M28.9494 29.8384C28.7444 29.8384 28.5907 29.724 28.4883 29.4951C28.3858 29.2853 28.3492 29.0469 28.3785 28.7799C28.3931 28.4938 28.4809 28.2459 28.642 28.0361C28.803 27.8072 29.0372 27.6928 29.3446 27.6928C29.6959 27.6928 30.0985 27.4639 30.5522 27.0062C30.9914 26.5485 31.511 25.8332 32.1112 24.8605C32.7114 23.8688 33.4213 22.5814 34.241 20.9984C35.0608 19.3963 36.0196 17.4605 37.1174 15.1908C37.2492 14.9238 37.4175 14.8094 37.6224 14.8475C37.842 14.8857 38.0177 15.0097 38.1494 15.2195C38.2812 15.4293 38.2885 15.6581 38.1714 15.9061C36.9271 18.6525 35.8512 20.9316 34.9437 22.7435C34.0507 24.5363 33.2676 25.9572 32.5942 27.0062C31.9209 28.0361 31.2988 28.7704 30.7279 29.2091C30.1424 29.6286 29.5495 29.8384 28.9494 29.8384Z"/>
<path d="M28.3785 44.2C27.8954 44.2 27.4782 44.0569 27.1269 43.7708C26.7756 43.5038 26.4975 43.1224 26.2925 42.6265C26.0876 42.1497 25.9851 41.6061 25.9851 40.9958C25.9851 40.3092 26.0876 39.6035 26.2925 38.8787C26.4975 38.154 26.8049 37.4197 27.2147 36.6759C27.6246 35.9321 28.1369 35.1692 28.7517 34.3872C29.3665 33.6243 30.0838 32.8423 30.9035 32.0413C31.2841 31.7171 31.6647 31.3833 32.0453 31.04C32.4113 30.7158 32.7845 30.382 33.1651 30.0387L36.7881 15.5342C36.8905 15.1527 37.0076 14.9048 37.1394 14.7903C37.2858 14.6759 37.498 14.6187 37.7761 14.6187C38.2299 14.6187 38.5154 14.714 38.6325 14.9048C38.7642 15.0764 38.7789 15.353 38.6764 15.7344L33.4725 36.5615C33.1359 37.8965 32.7919 39.0409 32.4406 39.9945C32.0892 40.9672 31.716 41.7587 31.3207 42.369C30.9109 42.9984 30.4717 43.4561 30.0033 43.7422C29.5202 44.0474 28.9786 44.2 28.3785 44.2ZM28.7298 41.9971C29.0079 41.9971 29.2714 41.8731 29.5202 41.6252C29.7545 41.3963 29.9887 41.0435 30.2229 40.5667C30.4424 40.0898 30.6693 39.4795 30.9035 38.7357C31.1378 38.011 31.3793 37.1527 31.6281 36.1609L32.3527 33.2143C32.1917 33.3478 32.038 33.4813 31.8916 33.6148C31.7306 33.7674 31.5696 33.9104 31.4086 34.0439C30.8084 34.6733 30.2887 35.2836 29.8496 35.8749C29.4105 36.4661 29.0445 37.0287 28.7517 37.5628C28.459 38.0968 28.2467 38.6213 28.115 39.1362C27.9832 39.6512 27.9174 40.1661 27.9174 40.6811C27.9174 40.9481 27.954 41.177 28.0272 41.3677C28.0857 41.5584 28.1735 41.711 28.2906 41.8254C28.4078 41.9399 28.5541 41.9971 28.7298 41.9971ZM39.2253 10.213C38.9033 10.213 38.6471 10.0794 38.4568 9.81243C38.2665 9.54542 38.1714 9.19258 38.1714 8.75392C38.1714 8.10546 38.3104 7.5905 38.5886 7.20905C38.8813 6.80853 39.2692 6.60827 39.7523 6.60827C40.089 6.60827 40.3524 6.74178 40.5427 7.00879C40.733 7.27581 40.8282 7.62865 40.8282 8.06731C40.8282 8.71577 40.6818 9.24026 40.389 9.64078C40.0963 10.0222 39.7084 10.213 39.2253 10.213Z"/>
<path d="M34.5134 31.2117C34.3232 31.3452 34.1548 31.3452 34.0084 31.2117C33.8474 31.0972 33.7376 30.916 33.6791 30.6681C33.6205 30.4201 33.6205 30.1627 33.6791 29.8957C33.723 29.6286 33.8474 29.4284 34.0523 29.2949C34.9599 28.6273 35.7943 27.9407 36.5555 27.2351C37.3166 26.5103 38.0266 25.7474 38.6853 24.9464C39.344 24.1453 39.9588 23.2871 40.5297 22.3716C41.1152 21.4561 41.6788 20.4739 42.2204 19.4249C42.7767 18.3569 43.3256 17.2125 43.8672 15.9919C44.0136 15.7058 44.1819 15.5628 44.3722 15.5628C44.5625 15.5628 44.7089 15.6772 44.8114 15.9061C44.9138 16.1349 44.8919 16.421 44.7455 16.7643C44.1746 18.1757 43.6037 19.4726 43.0328 20.6551C42.4619 21.8376 41.8691 22.9247 41.2543 23.9165C40.6541 24.9082 40.0174 25.8237 39.344 26.6629C38.656 27.5021 37.9168 28.3031 37.1263 29.066C36.3359 29.8098 35.4649 30.525 34.5134 31.2117Z"/>
<path d="M43.3841 29.7812C42.7108 29.7812 42.1838 29.5714 41.8032 29.1518C41.4373 28.7132 41.2397 28.0742 41.2104 27.2351C41.1811 26.3768 41.3202 25.3374 41.6276 24.1167L43.8233 15.5342C43.9257 15.1527 44.0429 14.9048 44.1746 14.7903C44.321 14.6759 44.5332 14.6187 44.8114 14.6187C45.2651 14.6187 45.5506 14.714 45.6677 14.9048C45.7994 15.0764 45.8141 15.353 45.7116 15.7344L43.3841 24.7747C43.2524 25.2515 43.1646 25.6997 43.1207 26.1193C43.0914 26.5389 43.1426 26.8727 43.2744 27.1206C43.4207 27.3686 43.6915 27.4925 44.0868 27.4925C44.5991 27.4925 45.1553 27.2065 45.7555 26.6343C46.3557 26.0621 46.9705 25.2611 47.5999 24.2312C48.244 23.2013 48.8734 21.9902 49.4882 20.5979C50.103 19.1865 50.6739 17.6416 51.2009 15.9633L51.3107 15.5342C51.4131 15.1527 51.5303 14.9048 51.662 14.7903C51.8084 14.6759 52.0206 14.6187 52.2988 14.6187C52.7525 14.6187 53.038 14.714 53.1551 14.9048C53.2868 15.0764 53.3015 15.353 53.199 15.7344L50.4983 26.4054C50.4104 26.7487 50.3592 27.0062 50.3446 27.1778C50.3446 27.3495 50.3738 27.4639 50.4324 27.5211C50.4909 27.5784 50.5568 27.607 50.63 27.607C50.7764 27.607 50.9228 27.5498 51.0692 27.4353C51.2155 27.3018 51.3692 27.1206 51.5303 26.8918C51.6913 26.6629 51.8669 26.3863 52.0572 26.0621C52.189 25.8332 52.3353 25.7188 52.4964 25.7188C52.6574 25.7188 52.833 25.7951 53.0233 25.9477C53.2136 26.1384 53.3307 26.3196 53.3746 26.4912C53.4332 26.6438 53.4112 26.8059 53.3088 26.9776C53.1624 27.2827 52.9428 27.6547 52.6501 28.0933C52.3719 28.532 52.0206 28.923 51.5961 29.2663C51.1863 29.6096 50.7178 29.7812 50.1909 29.7812C49.62 29.7812 49.2028 29.6286 48.9393 29.3235C48.6905 28.9993 48.5441 28.5987 48.5002 28.1219C48.4709 27.6451 48.4928 27.1397 48.566 26.6057C48.6539 26.0716 48.7563 25.5758 48.8734 25.118L49.115 24.2026C48.6758 25.099 48.222 25.8905 47.7536 26.5771C47.2852 27.2637 46.8021 27.8454 46.3044 28.3222C45.8214 28.799 45.331 29.1614 44.8333 29.4093C44.3503 29.6573 43.8672 29.7812 43.3841 29.7812Z"/>
<path d="M68.5844 29.8384C67.8525 29.8384 67.1792 29.6477 66.5644 29.2663C65.9642 28.8848 65.4446 28.3413 65.0054 27.6356C64.5663 26.9299 64.2296 26.0812 63.9954 25.0894C63.7612 24.0786 63.6441 22.9533 63.6441 21.7136C63.6441 19.9208 63.8197 18.1471 64.1711 16.3924C64.537 14.6377 65.042 12.9594 65.6861 11.3573C66.3302 9.75522 67.0914 8.28664 67.9697 6.95158C68.8479 5.61651 69.8067 4.45309 70.846 3.46133C71.9 2.45049 73.0052 1.67806 74.1616 1.14403C75.318 0.590934 76.5037 0.314384 77.7186 0.314384C78.4505 0.314384 79.1312 0.419282 79.7607 0.629079C80.3901 0.819804 80.9683 1.10589 81.4953 1.48734C82.0369 1.86879 82.5053 2.34559 82.9005 2.91777L83.3616 1.08682C83.4348 0.819803 83.5519 0.629079 83.7129 0.514647C83.8886 0.381138 84.1301 0.314384 84.4375 0.314384C84.7742 0.314384 85.0231 0.381138 85.1841 0.514647C85.3451 0.648153 85.3817 0.867485 85.2939 1.17264L80.0241 22.0283C79.7899 22.9819 79.6069 23.8116 79.4752 24.5172C79.3435 25.2229 79.2776 25.8142 79.2776 26.291C79.2776 26.7487 79.3508 27.1016 79.4972 27.3495C79.6582 27.5784 79.907 27.6928 80.2437 27.6928C80.5218 27.6928 80.7048 27.8072 80.7926 28.0361C80.8951 28.2459 80.9171 28.4938 80.8585 28.7799C80.8 29.0469 80.6829 29.2853 80.5072 29.4951C80.3315 29.724 80.1046 29.8384 79.8265 29.8384C79.241 29.8384 78.7579 29.6859 78.3773 29.3807C77.9968 29.0755 77.726 28.5987 77.5649 27.9503C77.4185 27.2827 77.3893 26.4436 77.4771 25.4327C77.5796 24.4028 77.8065 23.1822 78.1578 21.7708L78.7067 19.5394C77.8431 21.2368 76.9794 22.7244 76.1158 24.0023C75.2521 25.2801 74.3958 26.3577 73.5468 27.2351C72.6978 28.0933 71.8561 28.7418 71.0217 29.1804C70.1873 29.6191 69.3749 29.8384 68.5844 29.8384ZM65.6641 21.7994C65.6641 22.734 65.7447 23.5541 65.9057 24.2598C66.0813 24.9464 66.3229 25.5281 66.6303 26.0049C66.9377 26.4626 67.289 26.8155 67.6842 27.0634C68.0794 27.2923 68.5039 27.4067 68.9577 27.4067C69.6457 27.4067 70.3557 27.1874 71.0876 26.7487C71.8341 26.291 72.5953 25.6234 73.3711 24.7461C74.1616 23.8497 74.9593 22.7626 75.7644 21.4847C76.5842 20.1878 77.4112 18.7097 78.2456 17.0504C79.0946 15.372 79.929 13.522 80.7487 11.5003L82.2638 5.43532C81.7661 4.51985 81.1293 3.84278 80.3535 3.40411C79.5777 2.96545 78.5969 2.74611 77.4112 2.74611C76.4158 2.74611 75.4424 3.00359 74.4909 3.51855C73.5395 4.01443 72.6246 4.72964 71.7463 5.66419C70.868 6.57966 70.0556 7.64772 69.309 8.86835C68.5771 10.0699 67.9331 11.3859 67.3768 12.8163C66.8352 14.2277 66.4107 15.6963 66.1033 17.2221C65.8105 18.7478 65.6641 20.2736 65.6641 21.7994Z"/>
<path d="M79.854 29.8384C79.5758 29.8384 79.3929 29.724 79.305 29.4951C79.2026 29.2853 79.1806 29.0469 79.2392 28.7799C79.2831 28.4938 79.3929 28.2459 79.5685 28.0361C79.7442 27.8072 79.9711 27.6928 80.2492 27.6928C80.5127 27.6928 80.842 27.5116 81.2373 27.1492C81.6179 26.7678 82.0936 26.167 82.6645 25.3469C83.2354 24.5077 83.9234 23.411 84.7285 22.0569C85.5336 20.7028 86.485 19.0435 87.5829 17.079C87.7585 16.7739 87.9415 16.6499 88.1318 16.7071C88.3368 16.7643 88.4758 16.9264 88.549 17.1934C88.6368 17.4605 88.5929 17.7561 88.4173 18.0803C87.2169 20.369 86.1703 22.2762 85.2774 23.802C84.3991 25.3088 83.6379 26.5103 82.9938 27.4067C82.3351 28.284 81.7569 28.9134 81.2592 29.2949C80.7615 29.6573 80.2931 29.8384 79.854 29.8384Z"/>
<path d="M94.697 29.8384C94.0529 29.8384 93.5699 29.6763 93.2478 29.3521C92.9404 29.0469 92.7501 28.656 92.677 28.1791C92.6038 27.6833 92.6038 27.1683 92.677 26.6343C92.7501 26.0812 92.8453 25.5758 92.9624 25.118L94.4555 19.5107C94.5872 19.0149 94.6677 18.5667 94.697 18.1661C94.7409 17.7465 94.6897 17.4128 94.5433 17.1648C94.4116 16.9169 94.1408 16.7929 93.7309 16.7929C93.2332 16.7929 92.677 17.079 92.0622 17.6512C91.462 18.2234 90.8399 19.0244 90.1958 20.0543C89.5517 21.0842 88.915 22.3048 88.2855 23.7162C87.6707 25.1085 87.0998 26.6438 86.5729 28.3222L86.4631 25.7474C87.0193 23.9737 87.6122 22.4002 88.2416 21.027C88.871 19.6347 89.5298 18.4522 90.2178 17.4795C90.9057 16.5068 91.6011 15.7726 92.3037 15.2767C93.0209 14.7617 93.7382 14.5042 94.4555 14.5042C95.1288 14.5042 95.6485 14.7236 96.0144 15.1622C96.395 15.5818 96.6 16.2112 96.6292 17.0504C96.6732 17.8896 96.5341 18.929 96.2121 20.1687L94.9166 25.0894C94.6531 26.0812 94.5287 26.7678 94.5433 27.1492C94.5726 27.5116 94.7629 27.6928 95.1142 27.6928C95.3191 27.6928 95.4655 27.8072 95.5533 28.0361C95.6558 28.2459 95.6924 28.4938 95.6631 28.7799C95.6485 29.0469 95.5607 29.2853 95.3996 29.4951C95.2386 29.724 95.0044 29.8384 94.697 29.8384ZM85.3652 29.7812C85.131 29.7812 84.9114 29.7145 84.7065 29.581C84.5016 29.4475 84.443 29.1995 84.5308 28.8371L90.108 6.57966C90.6496 4.3482 91.2497 2.72704 91.9085 1.71621C92.5818 0.70537 93.3869 0.199951 94.3237 0.199951C94.8068 0.199951 95.2167 0.342994 95.5533 0.629079C95.9047 0.915166 96.1755 1.31569 96.3658 1.83064C96.5707 2.32652 96.6732 2.89869 96.6732 3.54715C96.6732 4.06211 96.6146 4.61521 96.4975 5.20645C96.3804 5.77863 96.2121 6.38894 95.9925 7.0374C95.7876 7.66679 95.5241 8.33432 95.202 9.04C94.8946 9.72661 94.5287 10.4323 94.1042 11.157C93.6943 11.8627 93.2405 12.5875 92.7428 13.3313C92.2451 14.056 91.6962 14.7999 91.096 15.5628C90.5105 16.3066 89.8811 17.0599 89.2077 17.8228L86.3972 29.0374C86.3387 29.2853 86.2362 29.4665 86.0898 29.581C85.9434 29.7145 85.7019 29.7812 85.3652 29.7812ZM90.0201 14.5901C90.4886 13.9607 90.9277 13.3218 91.3376 12.6733C91.7621 12.0248 92.15 11.3764 92.5013 10.7279C92.8672 10.0794 93.1966 9.45006 93.4894 8.83974C93.7821 8.21035 94.0237 7.60004 94.214 7.00879C94.4189 6.41755 94.5726 5.85491 94.6751 5.32089C94.7922 4.76779 94.8507 4.25283 94.8507 3.77602C94.8507 3.50901 94.8214 3.28014 94.7629 3.08942C94.7043 2.89869 94.6165 2.75565 94.4994 2.66029C94.3823 2.54585 94.2359 2.48864 94.0603 2.48864C93.826 2.48864 93.5992 2.62214 93.3796 2.88916C93.16 3.1371 92.9331 3.60437 92.6989 4.29098C92.4647 4.97758 92.1866 5.95981 91.8645 7.23766L90.0201 14.5901Z"/>
<path d="M94.6922 29.8384C94.4873 29.8384 94.3336 29.724 94.2311 29.4951C94.1286 29.2853 94.092 29.0469 94.1213 28.7799C94.136 28.4938 94.2238 28.2459 94.3848 28.0361C94.5458 27.8072 94.78 27.6928 95.0874 27.6928C95.468 27.6928 95.8706 27.5116 96.2951 27.1492C96.7196 26.7869 97.1587 26.2814 97.6125 25.633C98.0517 24.9845 98.5054 24.2216 98.9739 23.3443C99.4423 22.467 99.918 21.5133 100.401 20.4834C100.518 20.2355 100.679 20.1306 100.884 20.1687C101.089 20.2069 101.257 20.3309 101.389 20.5407C101.521 20.7314 101.528 20.9507 101.411 21.1986C100.782 22.6291 100.182 23.8879 99.6106 24.975C99.0544 26.0621 98.5128 26.968 97.9858 27.6928C97.4442 28.3985 96.9099 28.9325 96.3829 29.2949C95.8413 29.6573 95.2777 29.8384 94.6922 29.8384Z"/>
<path d="M101.872 29.8384C101.375 29.8384 100.943 29.6668 100.577 29.3235C100.211 28.9802 99.9253 28.4938 99.7204 27.8645C99.5155 27.2351 99.413 26.4912 99.413 25.633C99.413 24.7556 99.5155 23.8116 99.7204 22.8007C99.9253 21.7899 100.233 20.7981 100.643 19.8254C101.052 18.8527 101.55 17.9659 102.136 17.1648C102.721 16.3638 103.395 15.7249 104.156 15.2481C104.932 14.7522 105.781 14.5042 106.703 14.5042C107.259 14.5042 107.859 14.6377 108.503 14.9048C109.147 15.1527 109.726 15.5055 110.238 15.9633L109.843 17.9373C109.125 17.4414 108.489 17.1267 107.932 16.9932C107.376 16.8406 106.864 16.7643 106.395 16.7643C105.766 16.7643 105.188 16.955 104.661 17.3365C104.148 17.7179 103.687 18.2234 103.277 18.8527C102.882 19.4631 102.546 20.1497 102.267 20.9126C101.989 21.6564 101.777 22.4002 101.631 23.144C101.484 23.8879 101.411 24.5649 101.411 25.1752C101.411 25.6521 101.455 26.0716 101.543 26.434C101.631 26.7964 101.755 27.0729 101.916 27.2637C102.092 27.4544 102.289 27.5498 102.509 27.5498C103.051 27.5498 103.665 27.1683 104.353 26.4054C105.041 25.6234 105.773 24.4791 106.549 22.9724C107.34 21.4657 108.145 19.6347 108.964 17.4795L109.777 18.5381C108.825 21.0938 107.881 23.2108 106.944 24.8892C106.022 26.5485 105.137 27.7882 104.287 28.6083C103.438 29.4284 102.633 29.8384 101.872 29.8384ZM108.635 29.8384C107.976 29.8384 107.486 29.6763 107.164 29.3521C106.856 29.0469 106.659 28.656 106.571 28.1791C106.498 27.6833 106.498 27.1683 106.571 26.6343C106.644 26.0812 106.747 25.5758 106.878 25.118L109.338 15.5342C109.44 15.1527 109.557 14.9048 109.689 14.7903C109.835 14.6759 110.048 14.6187 110.326 14.6187C110.779 14.6187 111.065 14.714 111.182 14.9048C111.314 15.0764 111.328 15.353 111.226 15.7344L108.811 25.0894C108.562 26.0812 108.445 26.7678 108.459 27.1492C108.489 27.5116 108.672 27.6928 109.008 27.6928C109.213 27.6928 109.367 27.8072 109.469 28.0361C109.572 28.2459 109.608 28.4938 109.579 28.7799C109.565 29.0469 109.477 29.2853 109.316 29.4951C109.169 29.724 108.942 29.8384 108.635 29.8384Z"/>
<path d="M108.674 29.8384C108.44 29.8384 108.293 29.724 108.235 29.4951C108.161 29.2853 108.161 29.0469 108.235 28.7799C108.293 28.4938 108.396 28.2459 108.542 28.0361C108.688 27.8072 108.849 27.6928 109.025 27.6928C109.289 27.6928 109.574 27.5593 109.881 27.2923C110.174 27.0253 110.482 26.6343 110.804 26.1193C111.111 25.6044 111.44 24.9845 111.792 24.2598C112.128 23.5159 112.48 22.6768 112.846 21.7422C113.504 20.102 114.09 18.7955 114.602 17.8228C115.129 16.8501 115.612 16.1254 116.051 15.6486C116.491 15.1718 116.908 14.8666 117.303 14.7331C117.713 14.5805 118.123 14.5042 118.533 14.5042C118.679 14.5042 118.774 14.6187 118.818 14.8475C118.862 15.0573 118.855 15.3053 118.796 15.5914C118.737 15.8584 118.635 16.1063 118.489 16.3352C118.357 16.545 118.181 16.6499 117.962 16.6499C117.801 16.6499 117.61 16.7071 117.391 16.8215C117.186 16.9169 116.944 17.1458 116.666 17.5081C116.403 17.8514 116.088 18.3759 115.722 19.0816C115.371 19.7873 114.961 20.7314 114.492 21.9139C113.804 23.7067 113.175 25.1371 112.604 26.2052C112.033 27.2541 111.514 28.0456 111.045 28.5797C110.577 29.0946 110.152 29.4284 109.772 29.581C109.376 29.7526 109.01 29.8384 108.674 29.8384Z"/>
<path d="M114.075 29.7812C113.841 29.7812 113.621 29.7145 113.417 29.581C113.226 29.4475 113.175 29.1995 113.263 28.8371L116.117 17.3365C116.161 17.1458 116.154 16.9837 116.095 16.8501C116.051 16.7166 115.942 16.6499 115.766 16.6499C115.546 16.6499 115.407 16.545 115.349 16.3352C115.305 16.1063 115.312 15.8584 115.371 15.5914C115.444 15.3053 115.561 15.0573 115.722 14.8475C115.898 14.6187 116.095 14.5042 116.315 14.5042C116.856 14.5042 117.252 14.6377 117.501 14.9048C117.764 15.1527 117.925 15.4865 117.984 15.9061C118.042 16.3066 118.042 16.7357 117.984 17.1934C117.925 17.6512 117.852 18.0708 117.764 18.4522L117.369 19.9971C117.793 19.1198 118.225 18.3378 118.664 17.6512C119.118 16.9646 119.572 16.3924 120.026 15.9347C120.494 15.4579 120.962 15.105 121.431 14.8762C121.899 14.6282 122.368 14.5042 122.836 14.5042C123.612 14.5042 124.168 14.7522 124.505 15.2481C124.856 15.7249 125.025 16.3924 125.01 17.2507C125.01 18.1089 124.871 19.0816 124.593 20.1687L122.353 29.0374C122.28 29.2853 122.17 29.4665 122.024 29.581C121.877 29.7145 121.636 29.7812 121.299 29.7812C121.065 29.7812 120.845 29.7145 120.64 29.581C120.436 29.4475 120.384 29.1995 120.487 28.8371L122.836 19.5107C122.968 19.0149 123.048 18.5667 123.078 18.1661C123.122 17.7465 123.078 17.4128 122.946 17.1648C122.814 16.9169 122.543 16.7929 122.134 16.7929C121.665 16.7929 121.145 17.0695 120.575 17.6226C120.018 18.1757 119.44 18.9576 118.84 19.9685C118.24 20.9602 117.647 22.1427 117.061 23.5159C116.476 24.8701 115.92 26.3577 115.393 27.9789L115.129 29.0374C115.071 29.2853 114.961 29.4665 114.8 29.581C114.653 29.7145 114.412 29.7812 114.075 29.7812ZM130.324 29.8384C129.679 29.8384 129.204 29.6763 128.896 29.3521C128.589 29.0469 128.399 28.656 128.325 28.1791C128.252 27.6833 128.252 27.1683 128.325 26.6343C128.399 26.0812 128.494 25.5758 128.611 25.118L130.082 19.5107C130.214 19.0149 130.294 18.5667 130.324 18.1661C130.367 17.7465 130.324 17.4128 130.192 17.1648C130.06 16.9169 129.789 16.7929 129.379 16.7929C128.896 16.7929 128.362 17.079 127.777 17.6512C127.206 18.2234 126.613 19.0339 125.998 20.0829C125.398 21.1128 124.798 22.3335 124.198 23.7448C123.612 25.1371 123.056 26.6629 122.529 28.3222H121.65C122.236 26.167 122.858 24.2407 123.517 22.5433C124.176 20.8458 124.864 19.3963 125.581 18.1947C126.313 16.9932 127.052 16.0777 127.798 15.4483C128.56 14.8189 129.321 14.5042 130.082 14.5042C130.858 14.5042 131.414 14.7522 131.751 15.2481C132.102 15.7439 132.278 16.421 132.278 17.2793C132.278 18.1185 132.131 19.0816 131.839 20.1687L130.543 25.0894C130.28 26.1003 130.163 26.7869 130.192 27.1492C130.221 27.5116 130.404 27.6928 130.741 27.6928C130.96 27.6928 131.114 27.8072 131.202 28.0361C131.304 28.2459 131.341 28.4938 131.312 28.7799C131.282 29.0469 131.187 29.2853 131.026 29.4951C130.865 29.724 130.631 29.8384 130.324 29.8384Z"/>
<path d="M130.351 29.8384C130.073 29.8384 129.89 29.724 129.802 29.4951C129.7 29.2853 129.678 29.0469 129.736 28.7799C129.78 28.4938 129.89 28.2459 130.066 28.0361C130.241 27.8072 130.468 27.6928 130.746 27.6928C131.347 27.6928 132.064 27.4735 132.898 27.0348C133.718 26.5961 134.64 25.9381 135.665 25.0608C135.84 24.9082 136.001 24.8796 136.148 24.975C136.294 25.0703 136.404 25.2325 136.477 25.4613C136.565 25.6902 136.594 25.9286 136.565 26.1765C136.536 26.4245 136.441 26.6247 136.28 26.7773C135.416 27.5211 134.618 28.1219 133.886 28.5797C133.14 29.0183 132.474 29.333 131.888 29.5237C131.288 29.7335 130.776 29.8384 130.351 29.8384Z"/>
<path d="M135.665 25.2611C135.928 25.0513 136.184 24.8319 136.433 24.6031C136.682 24.3742 136.931 24.1453 137.18 23.9165C137.839 23.2871 138.431 22.6386 138.958 21.9711C139.485 21.3035 139.903 20.6455 140.21 19.9971C140.532 19.3486 140.693 18.7478 140.693 18.1947C140.693 17.7561 140.62 17.4128 140.473 17.1648C140.327 16.9169 140.107 16.7929 139.815 16.7929C139.61 16.7929 139.456 16.6785 139.354 16.4496C139.266 16.2208 139.236 15.9537 139.266 15.6486C139.295 15.3434 139.39 15.0764 139.551 14.8475C139.727 14.6187 139.968 14.5042 140.276 14.5042C140.715 14.5042 141.117 14.6282 141.483 14.8762C141.849 15.105 142.135 15.4483 142.34 15.9061C142.559 16.3447 142.669 16.8788 142.669 17.5081C142.669 18.3664 142.457 19.2723 142.032 20.226C141.623 21.1605 141.074 22.0951 140.386 23.0296C139.698 23.9451 138.929 24.8033 138.08 25.6044C137.802 25.8523 137.517 26.1098 137.224 26.3768C136.931 26.6247 136.638 26.8631 136.345 27.092L135.665 25.2611Z"/>
<path d="M138.571 29.8384C138.087 29.8384 137.663 29.7335 137.297 29.5237C136.916 29.333 136.587 29.0565 136.309 28.6941C136.016 28.3127 135.782 27.874 135.606 27.3781C135.416 26.8822 135.277 26.3482 135.189 25.776C135.101 25.1848 135.057 24.5649 135.057 23.9165C135.057 22.9819 135.153 21.9711 135.343 20.884C135.533 19.7968 135.841 18.7765 136.265 17.8228C136.675 16.8501 137.217 16.0586 137.89 15.4483C138.549 14.8189 139.346 14.5042 140.283 14.5042C140.488 14.5042 140.62 14.6187 140.678 14.8475C140.737 15.0764 140.744 15.3434 140.7 15.6486C140.642 15.9537 140.539 16.2208 140.393 16.4496C140.232 16.6785 140.049 16.7929 139.844 16.7929C139.346 16.7929 138.922 17.0504 138.571 17.5654C138.205 18.0612 137.904 18.6906 137.67 19.4535C137.436 20.2164 137.268 21.0079 137.165 21.828C137.048 22.6291 136.99 23.3443 136.99 23.9737C136.99 24.5077 137.026 25.0036 137.099 25.4613C137.173 25.9 137.29 26.2814 137.451 26.6057C137.612 26.9299 137.831 27.1874 138.109 27.3781C138.388 27.5498 138.724 27.6356 139.119 27.6356C139.764 27.6356 140.43 27.34 141.118 26.7487C141.806 26.1384 142.596 25.1752 143.489 23.8592C144.382 22.5433 145.436 20.8172 146.651 18.6811C146.724 18.5476 146.848 18.5381 147.024 18.6525C147.214 18.7669 147.375 18.9195 147.507 19.1102C147.639 19.2819 147.675 19.4249 147.617 19.5394C146.621 21.4847 145.714 23.125 144.894 24.46C144.089 25.776 143.335 26.8345 142.633 27.6356C141.93 28.4175 141.249 28.9802 140.591 29.3235C139.932 29.6668 139.259 29.8384 138.571 29.8384Z"/>
<path d="M147.024 29.8384C146.526 29.8384 146.087 29.6668 145.707 29.3235C145.341 28.9802 145.055 28.4938 144.85 27.8645C144.645 27.2351 144.543 26.4912 144.543 25.633C144.543 24.7556 144.645 23.8116 144.85 22.8007C145.055 21.7899 145.363 20.7981 145.772 19.8254C146.182 18.8527 146.68 17.9659 147.266 17.1648C147.866 16.3638 148.546 15.7249 149.308 15.2481C150.069 14.7522 150.918 14.5042 151.855 14.5042C152.279 14.5042 152.733 14.5805 153.216 14.7331C153.714 14.8857 154.189 15.105 154.643 15.3911L158.244 1.22986C158.332 0.848413 158.442 0.600472 158.574 0.486037C158.72 0.371602 158.939 0.314384 159.232 0.314384C159.686 0.314384 159.971 0.409747 160.089 0.600473C160.22 0.772123 160.235 1.04867 160.132 1.43012L153.787 26.4054C153.699 26.8059 153.67 27.1111 153.699 27.3209C153.728 27.5116 153.831 27.607 154.006 27.607C154.153 27.607 154.292 27.5498 154.424 27.4353C154.555 27.3209 154.702 27.1492 154.863 26.9204C155.038 26.6915 155.243 26.3959 155.478 26.0335C155.595 25.8428 155.712 25.7379 155.829 25.7188C155.946 25.6807 156.085 25.7379 156.246 25.8905C156.48 26.0812 156.619 26.2719 156.663 26.4626C156.722 26.6534 156.707 26.8441 156.619 27.0348C156.312 27.6642 155.99 28.1887 155.653 28.6083C155.331 29.0088 154.987 29.3044 154.621 29.4951C154.27 29.6859 153.897 29.7812 153.501 29.7812C152.974 29.7812 152.572 29.6096 152.294 29.2663C152.016 28.923 151.869 28.408 151.855 27.7214C151.84 27.0348 151.95 26.1861 152.184 25.1752C152.199 25.118 152.206 25.0608 152.206 25.0036C152.221 24.9273 152.235 24.8605 152.25 24.8033C151.62 25.9286 150.998 26.8727 150.383 27.6356C149.783 28.3794 149.198 28.9325 148.627 29.2949C148.056 29.6573 147.522 29.8384 147.024 29.8384ZM146.541 25.1752C146.541 25.6521 146.585 26.0716 146.673 26.434C146.761 26.7964 146.885 27.0729 147.046 27.2637C147.222 27.4544 147.419 27.5498 147.639 27.5498C148.151 27.5498 148.744 27.2065 149.417 26.5198C150.091 25.8142 150.801 24.7938 151.547 23.4587C152.308 22.1046 153.077 20.4548 153.853 18.5094L154.116 17.3937C153.618 17.1267 153.15 16.955 152.711 16.8788C152.286 16.8025 151.899 16.7643 151.547 16.7643C150.918 16.7643 150.34 16.955 149.813 17.3365C149.286 17.7179 148.817 18.2234 148.407 18.8527C148.012 19.4631 147.675 20.1497 147.397 20.9126C147.119 21.6564 146.907 22.4002 146.761 23.144C146.614 23.8879 146.541 24.5649 146.541 25.1752Z"/>
</mask>
<path d="M1.09034 29.7526C0.768306 29.7526 0.526777 29.6859 0.365758 29.5524C0.204739 29.4188 0.160825 29.1995 0.234015 28.8944L5.92092 6.15054C5.55497 6.62735 5.16706 7.08508 4.75719 7.52375C4.34732 7.96241 3.9155 8.40108 3.46172 8.83974C3.02258 9.25934 2.55416 9.698 2.05646 10.1557C1.74906 10.4228 1.49289 10.5086 1.28796 10.4132C1.08303 10.3179 0.900049 10.0985 0.73903 9.75522C0.592649 9.45006 0.534096 9.16397 0.563373 8.89696C0.592649 8.61087 0.746349 8.36293 1.02447 8.15314C1.88812 7.44746 2.6859 6.73224 3.4178 6.00749C4.16435 5.26367 4.84502 4.49124 5.45982 3.6902C6.07462 2.87009 6.60891 2.02136 7.0627 1.14403C7.23835 0.819804 7.39937 0.600472 7.54575 0.486037C7.69213 0.371602 7.92634 0.314384 8.24838 0.314384C8.58506 0.314384 8.82659 0.381138 8.97297 0.514647C9.13399 0.648153 9.17058 0.867485 9.08276 1.17264L7.85315 6.17914C8.42404 5.26367 9.01688 4.44356 9.63168 3.71881C10.2611 2.99406 10.8979 2.38374 11.542 1.88786C12.2007 1.3729 12.8521 0.981919 13.4961 0.714906C14.1549 0.447891 14.7989 0.314384 15.4284 0.314384C16.2627 0.314384 16.9947 0.505108 17.6241 0.886557C18.2682 1.24893 18.7659 1.8211 19.1172 2.60307C19.4685 3.38504 19.6442 4.36727 19.6442 5.54976C19.6442 6.46523 19.5124 7.3807 19.2489 8.29618C18.9854 9.21165 18.5975 10.089 18.0852 10.9282C17.5875 11.7674 16.98 12.5589 16.2627 13.3027C15.5455 14.0465 14.7257 14.7236 13.8035 15.3339C12.8813 15.9251 11.8786 16.4306 10.7954 16.8501C10.8832 17.2697 10.9711 17.6798 11.0589 18.0803C11.1614 18.4618 11.2565 18.8527 11.3443 19.2533C11.4468 19.6347 11.5493 20.0352 11.6517 20.4548C11.7688 20.8744 11.8933 21.3417 12.025 21.8566C12.2592 22.8103 12.4861 23.6304 12.7057 24.317C12.9399 24.9845 13.1668 25.5472 13.3864 26.0049C13.6059 26.4436 13.8255 26.7869 14.0451 27.0348C14.2646 27.2827 14.4842 27.4544 14.7038 27.5498C14.938 27.6451 15.1722 27.6928 15.4064 27.6928C15.6845 27.6928 15.8675 27.8072 15.9553 28.0361C16.0432 28.2459 16.0578 28.4938 15.9993 28.7799C15.9553 29.0469 15.8382 29.2853 15.6479 29.4951C15.4723 29.724 15.2454 29.8384 14.9673 29.8384C14.3964 29.8384 13.8841 29.6859 13.4303 29.3807C12.9911 29.0946 12.5886 28.656 12.2226 28.0647C11.8713 27.4544 11.5346 26.701 11.2126 25.8046C10.8906 24.9082 10.5685 23.8592 10.2465 22.6577C10.1001 22.0855 9.96836 21.5706 9.85125 21.1128C9.74879 20.6551 9.64632 20.2355 9.54385 19.854C9.44139 19.4535 9.33892 19.0435 9.23645 18.6239C9.14863 18.2043 9.04616 17.7465 8.92905 17.2507C8.63629 17.2125 8.36549 17.1267 8.11664 16.9932C7.86779 16.8406 7.67018 16.6403 7.5238 16.3924C7.39205 16.1445 7.32618 15.8584 7.32618 15.5342C7.32618 15.0955 7.45792 14.7331 7.72141 14.447C7.9849 14.1609 8.32157 14.0179 8.73144 14.0179C9.08276 14.0179 9.39015 14.1133 9.65364 14.304C9.93177 14.4947 10.1513 14.714 10.3124 14.962C11.1321 14.6187 11.9079 14.1991 12.6398 13.7032C13.3864 13.1882 14.0597 12.6256 14.6599 12.0153C15.2747 11.3859 15.8016 10.7279 16.2408 10.0413C16.6946 9.33563 17.0386 8.61087 17.2728 7.86705C17.5216 7.12323 17.646 6.36987 17.646 5.60697C17.646 4.90129 17.5436 4.33866 17.3386 3.91907C17.1484 3.49947 16.8776 3.19432 16.5262 3.00359C16.1749 2.81287 15.7651 2.71751 15.2966 2.71751C14.594 2.71751 13.8694 2.9273 13.1229 3.3469C12.3763 3.74741 11.6371 4.31959 10.9052 5.06341C10.1879 5.80723 9.49994 6.70363 8.84122 7.75262C8.18251 8.78253 7.57503 9.92687 7.01878 11.1856C6.47717 12.4444 6.00875 13.7795 5.61352 15.1908L2.21016 28.9516C2.15161 29.2186 2.0345 29.4188 1.85885 29.5524C1.68319 29.6859 1.42702 29.7526 1.09034 29.7526Z" fill="#1E1E1E"/>
<path d="M15.0117 29.8384C14.8068 29.8384 14.6531 29.724 14.5506 29.4951C14.4481 29.2853 14.4115 29.0469 14.4408 28.7799C14.4555 28.4938 14.5433 28.2459 14.7043 28.0361C14.8653 27.8072 15.0995 27.6928 15.4069 27.6928C15.7875 27.6928 16.1901 27.5116 16.6146 27.1492C17.0391 26.7869 17.4782 26.2814 17.932 25.633C18.3712 24.9845 18.8249 24.2216 19.2934 23.3443C19.7618 22.467 20.2375 21.5133 20.7206 20.4834C20.8377 20.2355 20.9987 20.1306 21.2036 20.1687C21.4086 20.2069 21.5769 20.3309 21.7086 20.5407C21.8404 20.7314 21.8477 20.9507 21.7306 21.1986C21.1012 22.6291 20.501 23.8879 19.9301 24.975C19.3739 26.0621 18.8323 26.968 18.3053 27.6928C17.7637 28.3985 17.2294 28.9325 16.7024 29.2949C16.1608 29.6573 15.5972 29.8384 15.0117 29.8384Z" fill="#1E1E1E"/>
<path d="M22.1917 29.8384C21.694 29.8384 21.2622 29.6668 20.8962 29.3235C20.5303 28.9802 20.2448 28.4938 20.0399 27.8645C19.835 27.2351 19.7325 26.4912 19.7325 25.633C19.7325 24.7556 19.835 23.8116 20.0399 22.8007C20.2448 21.7899 20.5522 20.7981 20.9621 19.8254C21.372 18.8527 21.8697 17.9659 22.4552 17.1648C23.0407 16.3638 23.7141 15.7249 24.4752 15.2481C25.2511 14.7522 26.1001 14.5042 27.0223 14.5042C27.5785 14.5042 28.1787 14.6377 28.8228 14.9048C29.4668 15.1527 30.045 15.5055 30.5574 15.9633L30.1621 17.9373C29.4449 17.4414 28.8081 17.1267 28.2519 16.9932C27.6956 16.8406 27.1833 16.7643 26.7149 16.7643C26.0854 16.7643 25.5072 16.955 24.9803 17.3365C24.4679 17.7179 24.0068 18.2234 23.597 18.8527C23.2017 19.4631 22.8651 20.1497 22.5869 20.9126C22.3088 21.6564 22.0965 22.4002 21.9502 23.144C21.8038 23.8879 21.7306 24.5649 21.7306 25.1752C21.7306 25.6521 21.7745 26.0716 21.8623 26.434C21.9502 26.7964 22.0746 27.0729 22.2356 27.2637C22.4113 27.4544 22.6089 27.5498 22.8285 27.5498C23.3701 27.5498 23.9849 27.1683 24.6729 26.4054C25.3608 25.6234 26.0928 24.4791 26.8686 22.9724C27.659 21.4657 28.4641 19.6347 29.2839 17.4795L30.0963 18.5381C29.1448 21.0938 28.2006 23.2108 27.2638 24.8892C26.3416 26.5485 25.456 27.7882 24.607 28.6083C23.758 29.4284 22.9529 29.8384 22.1917 29.8384ZM28.9545 29.8384C28.2958 29.8384 27.8054 29.6763 27.4834 29.3521C27.176 29.0469 26.9784 28.656 26.8905 28.1791C26.8173 27.6833 26.8173 27.1683 26.8905 26.6343C26.9637 26.0812 27.0662 25.5758 27.1979 25.118L29.6571 15.5342C29.7596 15.1527 29.8767 14.9048 30.0084 14.7903C30.1548 14.6759 30.3671 14.6187 30.6452 14.6187C31.099 14.6187 31.3844 14.714 31.5015 14.9048C31.6333 15.0764 31.6479 15.353 31.5455 15.7344L29.1302 25.0894C28.8813 26.0812 28.7642 26.7678 28.7788 27.1492C28.8081 27.5116 28.9911 27.6928 29.3278 27.6928C29.5327 27.6928 29.6864 27.8072 29.7889 28.0361C29.8913 28.2459 29.9279 28.4938 29.8987 28.7799C29.884 29.0469 29.7962 29.2853 29.6352 29.4951C29.4888 29.724 29.2619 29.8384 28.9545 29.8384Z" fill="#1E1E1E"/>
<path d="M28.9494 29.8384C28.7444 29.8384 28.5907 29.724 28.4883 29.4951C28.3858 29.2853 28.3492 29.0469 28.3785 28.7799C28.3931 28.4938 28.4809 28.2459 28.642 28.0361C28.803 27.8072 29.0372 27.6928 29.3446 27.6928C29.6959 27.6928 30.0985 27.4639 30.5522 27.0062C30.9914 26.5485 31.511 25.8332 32.1112 24.8605C32.7114 23.8688 33.4213 22.5814 34.241 20.9984C35.0608 19.3963 36.0196 17.4605 37.1174 15.1908C37.2492 14.9238 37.4175 14.8094 37.6224 14.8475C37.842 14.8857 38.0177 15.0097 38.1494 15.2195C38.2812 15.4293 38.2885 15.6581 38.1714 15.9061C36.9271 18.6525 35.8512 20.9316 34.9437 22.7435C34.0507 24.5363 33.2676 25.9572 32.5942 27.0062C31.9209 28.0361 31.2988 28.7704 30.7279 29.2091C30.1424 29.6286 29.5495 29.8384 28.9494 29.8384Z" fill="#1E1E1E"/>
<path d="M28.3785 44.2C27.8954 44.2 27.4782 44.0569 27.1269 43.7708C26.7756 43.5038 26.4975 43.1224 26.2925 42.6265C26.0876 42.1497 25.9851 41.6061 25.9851 40.9958C25.9851 40.3092 26.0876 39.6035 26.2925 38.8787C26.4975 38.154 26.8049 37.4197 27.2147 36.6759C27.6246 35.9321 28.1369 35.1692 28.7517 34.3872C29.3665 33.6243 30.0838 32.8423 30.9035 32.0413C31.2841 31.7171 31.6647 31.3833 32.0453 31.04C32.4113 30.7158 32.7845 30.382 33.1651 30.0387L36.7881 15.5342C36.8905 15.1527 37.0076 14.9048 37.1394 14.7903C37.2858 14.6759 37.498 14.6187 37.7761 14.6187C38.2299 14.6187 38.5154 14.714 38.6325 14.9048C38.7642 15.0764 38.7789 15.353 38.6764 15.7344L33.4725 36.5615C33.1359 37.8965 32.7919 39.0409 32.4406 39.9945C32.0892 40.9672 31.716 41.7587 31.3207 42.369C30.9109 42.9984 30.4717 43.4561 30.0033 43.7422C29.5202 44.0474 28.9786 44.2 28.3785 44.2ZM28.7298 41.9971C29.0079 41.9971 29.2714 41.8731 29.5202 41.6252C29.7545 41.3963 29.9887 41.0435 30.2229 40.5667C30.4424 40.0898 30.6693 39.4795 30.9035 38.7357C31.1378 38.011 31.3793 37.1527 31.6281 36.1609L32.3527 33.2143C32.1917 33.3478 32.038 33.4813 31.8916 33.6148C31.7306 33.7674 31.5696 33.9104 31.4086 34.0439C30.8084 34.6733 30.2887 35.2836 29.8496 35.8749C29.4105 36.4661 29.0445 37.0287 28.7517 37.5628C28.459 38.0968 28.2467 38.6213 28.115 39.1362C27.9832 39.6512 27.9174 40.1661 27.9174 40.6811C27.9174 40.9481 27.954 41.177 28.0272 41.3677C28.0857 41.5584 28.1735 41.711 28.2906 41.8254C28.4078 41.9399 28.5541 41.9971 28.7298 41.9971ZM39.2253 10.213C38.9033 10.213 38.6471 10.0794 38.4568 9.81243C38.2665 9.54542 38.1714 9.19258 38.1714 8.75392C38.1714 8.10546 38.3104 7.5905 38.5886 7.20905C38.8813 6.80853 39.2692 6.60827 39.7523 6.60827C40.089 6.60827 40.3524 6.74178 40.5427 7.00879C40.733 7.27581 40.8282 7.62865 40.8282 8.06731C40.8282 8.71577 40.6818 9.24026 40.389 9.64078C40.0963 10.0222 39.7084 10.213 39.2253 10.213Z" fill="#1E1E1E"/>
<path d="M34.5134 31.2117C34.3232 31.3452 34.1548 31.3452 34.0084 31.2117C33.8474 31.0972 33.7376 30.916 33.6791 30.6681C33.6205 30.4201 33.6205 30.1627 33.6791 29.8957C33.723 29.6286 33.8474 29.4284 34.0523 29.2949C34.9599 28.6273 35.7943 27.9407 36.5555 27.2351C37.3166 26.5103 38.0266 25.7474 38.6853 24.9464C39.344 24.1453 39.9588 23.2871 40.5297 22.3716C41.1152 21.4561 41.6788 20.4739 42.2204 19.4249C42.7767 18.3569 43.3256 17.2125 43.8672 15.9919C44.0136 15.7058 44.1819 15.5628 44.3722 15.5628C44.5625 15.5628 44.7089 15.6772 44.8114 15.9061C44.9138 16.1349 44.8919 16.421 44.7455 16.7643C44.1746 18.1757 43.6037 19.4726 43.0328 20.6551C42.4619 21.8376 41.8691 22.9247 41.2543 23.9165C40.6541 24.9082 40.0174 25.8237 39.344 26.6629C38.656 27.5021 37.9168 28.3031 37.1263 29.066C36.3359 29.8098 35.4649 30.525 34.5134 31.2117Z" fill="#1E1E1E"/>
<path d="M43.3841 29.7812C42.7108 29.7812 42.1838 29.5714 41.8032 29.1518C41.4373 28.7132 41.2397 28.0742 41.2104 27.2351C41.1811 26.3768 41.3202 25.3374 41.6276 24.1167L43.8233 15.5342C43.9257 15.1527 44.0429 14.9048 44.1746 14.7903C44.321 14.6759 44.5332 14.6187 44.8114 14.6187C45.2651 14.6187 45.5506 14.714 45.6677 14.9048C45.7994 15.0764 45.8141 15.353 45.7116 15.7344L43.3841 24.7747C43.2524 25.2515 43.1646 25.6997 43.1207 26.1193C43.0914 26.5389 43.1426 26.8727 43.2744 27.1206C43.4207 27.3686 43.6915 27.4925 44.0868 27.4925C44.5991 27.4925 45.1553 27.2065 45.7555 26.6343C46.3557 26.0621 46.9705 25.2611 47.5999 24.2312C48.244 23.2013 48.8734 21.9902 49.4882 20.5979C50.103 19.1865 50.6739 17.6416 51.2009 15.9633L51.3107 15.5342C51.4131 15.1527 51.5303 14.9048 51.662 14.7903C51.8084 14.6759 52.0206 14.6187 52.2988 14.6187C52.7525 14.6187 53.038 14.714 53.1551 14.9048C53.2868 15.0764 53.3015 15.353 53.199 15.7344L50.4983 26.4054C50.4104 26.7487 50.3592 27.0062 50.3446 27.1778C50.3446 27.3495 50.3738 27.4639 50.4324 27.5211C50.4909 27.5784 50.5568 27.607 50.63 27.607C50.7764 27.607 50.9228 27.5498 51.0692 27.4353C51.2155 27.3018 51.3692 27.1206 51.5303 26.8918C51.6913 26.6629 51.8669 26.3863 52.0572 26.0621C52.189 25.8332 52.3353 25.7188 52.4964 25.7188C52.6574 25.7188 52.833 25.7951 53.0233 25.9477C53.2136 26.1384 53.3307 26.3196 53.3746 26.4912C53.4332 26.6438 53.4112 26.8059 53.3088 26.9776C53.1624 27.2827 52.9428 27.6547 52.6501 28.0933C52.3719 28.532 52.0206 28.923 51.5961 29.2663C51.1863 29.6096 50.7178 29.7812 50.1909 29.7812C49.62 29.7812 49.2028 29.6286 48.9393 29.3235C48.6905 28.9993 48.5441 28.5987 48.5002 28.1219C48.4709 27.6451 48.4928 27.1397 48.566 26.6057C48.6539 26.0716 48.7563 25.5758 48.8734 25.118L49.115 24.2026C48.6758 25.099 48.222 25.8905 47.7536 26.5771C47.2852 27.2637 46.8021 27.8454 46.3044 28.3222C45.8214 28.799 45.331 29.1614 44.8333 29.4093C44.3503 29.6573 43.8672 29.7812 43.3841 29.7812Z" fill="#1E1E1E"/>
<path d="M68.5844 29.8384C67.8525 29.8384 67.1792 29.6477 66.5644 29.2663C65.9642 28.8848 65.4446 28.3413 65.0054 27.6356C64.5663 26.9299 64.2296 26.0812 63.9954 25.0894C63.7612 24.0786 63.6441 22.9533 63.6441 21.7136C63.6441 19.9208 63.8197 18.1471 64.1711 16.3924C64.537 14.6377 65.042 12.9594 65.6861 11.3573C66.3302 9.75522 67.0914 8.28664 67.9697 6.95158C68.8479 5.61651 69.8067 4.45309 70.846 3.46133C71.9 2.45049 73.0052 1.67806 74.1616 1.14403C75.318 0.590934 76.5037 0.314384 77.7186 0.314384C78.4505 0.314384 79.1312 0.419282 79.7607 0.629079C80.3901 0.819804 80.9683 1.10589 81.4953 1.48734C82.0369 1.86879 82.5053 2.34559 82.9005 2.91777L83.3616 1.08682C83.4348 0.819803 83.5519 0.629079 83.7129 0.514647C83.8886 0.381138 84.1301 0.314384 84.4375 0.314384C84.7742 0.314384 85.0231 0.381138 85.1841 0.514647C85.3451 0.648153 85.3817 0.867485 85.2939 1.17264L80.0241 22.0283C79.7899 22.9819 79.6069 23.8116 79.4752 24.5172C79.3435 25.2229 79.2776 25.8142 79.2776 26.291C79.2776 26.7487 79.3508 27.1016 79.4972 27.3495C79.6582 27.5784 79.907 27.6928 80.2437 27.6928C80.5218 27.6928 80.7048 27.8072 80.7926 28.0361C80.8951 28.2459 80.9171 28.4938 80.8585 28.7799C80.8 29.0469 80.6829 29.2853 80.5072 29.4951C80.3315 29.724 80.1046 29.8384 79.8265 29.8384C79.241 29.8384 78.7579 29.6859 78.3773 29.3807C77.9968 29.0755 77.726 28.5987 77.5649 27.9503C77.4185 27.2827 77.3893 26.4436 77.4771 25.4327C77.5796 24.4028 77.8065 23.1822 78.1578 21.7708L78.7067 19.5394C77.8431 21.2368 76.9794 22.7244 76.1158 24.0023C75.2521 25.2801 74.3958 26.3577 73.5468 27.2351C72.6978 28.0933 71.8561 28.7418 71.0217 29.1804C70.1873 29.6191 69.3749 29.8384 68.5844 29.8384ZM65.6641 21.7994C65.6641 22.734 65.7447 23.5541 65.9057 24.2598C66.0813 24.9464 66.3229 25.5281 66.6303 26.0049C66.9377 26.4626 67.289 26.8155 67.6842 27.0634C68.0794 27.2923 68.5039 27.4067 68.9577 27.4067C69.6457 27.4067 70.3557 27.1874 71.0876 26.7487C71.8341 26.291 72.5953 25.6234 73.3711 24.7461C74.1616 23.8497 74.9593 22.7626 75.7644 21.4847C76.5842 20.1878 77.4112 18.7097 78.2456 17.0504C79.0946 15.372 79.929 13.522 80.7487 11.5003L82.2638 5.43532C81.7661 4.51985 81.1293 3.84278 80.3535 3.40411C79.5777 2.96545 78.5969 2.74611 77.4112 2.74611C76.4158 2.74611 75.4424 3.00359 74.4909 3.51855C73.5395 4.01443 72.6246 4.72964 71.7463 5.66419C70.868 6.57966 70.0556 7.64772 69.309 8.86835C68.5771 10.0699 67.9331 11.3859 67.3768 12.8163C66.8352 14.2277 66.4107 15.6963 66.1033 17.2221C65.8105 18.7478 65.6641 20.2736 65.6641 21.7994Z" fill="#1E1E1E"/>
<path d="M79.854 29.8384C79.5758 29.8384 79.3929 29.724 79.305 29.4951C79.2026 29.2853 79.1806 29.0469 79.2392 28.7799C79.2831 28.4938 79.3929 28.2459 79.5685 28.0361C79.7442 27.8072 79.9711 27.6928 80.2492 27.6928C80.5127 27.6928 80.842 27.5116 81.2373 27.1492C81.6179 26.7678 82.0936 26.167 82.6645 25.3469C83.2354 24.5077 83.9234 23.411 84.7285 22.0569C85.5336 20.7028 86.485 19.0435 87.5829 17.079C87.7585 16.7739 87.9415 16.6499 88.1318 16.7071C88.3368 16.7643 88.4758 16.9264 88.549 17.1934C88.6368 17.4605 88.5929 17.7561 88.4173 18.0803C87.2169 20.369 86.1703 22.2762 85.2774 23.802C84.3991 25.3088 83.6379 26.5103 82.9938 27.4067C82.3351 28.284 81.7569 28.9134 81.2592 29.2949C80.7615 29.6573 80.2931 29.8384 79.854 29.8384Z" fill="#1E1E1E"/>
<path d="M94.697 29.8384C94.0529 29.8384 93.5699 29.6763 93.2478 29.3521C92.9404 29.0469 92.7501 28.656 92.677 28.1791C92.6038 27.6833 92.6038 27.1683 92.677 26.6343C92.7501 26.0812 92.8453 25.5758 92.9624 25.118L94.4555 19.5107C94.5872 19.0149 94.6677 18.5667 94.697 18.1661C94.7409 17.7465 94.6897 17.4128 94.5433 17.1648C94.4116 16.9169 94.1408 16.7929 93.7309 16.7929C93.2332 16.7929 92.677 17.079 92.0622 17.6512C91.462 18.2234 90.8399 19.0244 90.1958 20.0543C89.5517 21.0842 88.915 22.3048 88.2855 23.7162C87.6707 25.1085 87.0998 26.6438 86.5729 28.3222L86.4631 25.7474C87.0193 23.9737 87.6122 22.4002 88.2416 21.027C88.871 19.6347 89.5298 18.4522 90.2178 17.4795C90.9057 16.5068 91.6011 15.7726 92.3037 15.2767C93.0209 14.7617 93.7382 14.5042 94.4555 14.5042C95.1288 14.5042 95.6485 14.7236 96.0144 15.1622C96.395 15.5818 96.6 16.2112 96.6292 17.0504C96.6732 17.8896 96.5341 18.929 96.2121 20.1687L94.9166 25.0894C94.6531 26.0812 94.5287 26.7678 94.5433 27.1492C94.5726 27.5116 94.7629 27.6928 95.1142 27.6928C95.3191 27.6928 95.4655 27.8072 95.5533 28.0361C95.6558 28.2459 95.6924 28.4938 95.6631 28.7799C95.6485 29.0469 95.5607 29.2853 95.3996 29.4951C95.2386 29.724 95.0044 29.8384 94.697 29.8384ZM85.3652 29.7812C85.131 29.7812 84.9114 29.7145 84.7065 29.581C84.5016 29.4475 84.443 29.1995 84.5308 28.8371L90.108 6.57966C90.6496 4.3482 91.2497 2.72704 91.9085 1.71621C92.5818 0.70537 93.3869 0.199951 94.3237 0.199951C94.8068 0.199951 95.2167 0.342994 95.5533 0.629079C95.9047 0.915166 96.1755 1.31569 96.3658 1.83064C96.5707 2.32652 96.6732 2.89869 96.6732 3.54715C96.6732 4.06211 96.6146 4.61521 96.4975 5.20645C96.3804 5.77863 96.2121 6.38894 95.9925 7.0374C95.7876 7.66679 95.5241 8.33432 95.202 9.04C94.8946 9.72661 94.5287 10.4323 94.1042 11.157C93.6943 11.8627 93.2405 12.5875 92.7428 13.3313C92.2451 14.056 91.6962 14.7999 91.096 15.5628C90.5105 16.3066 89.8811 17.0599 89.2077 17.8228L86.3972 29.0374C86.3387 29.2853 86.2362 29.4665 86.0898 29.581C85.9434 29.7145 85.7019 29.7812 85.3652 29.7812ZM90.0201 14.5901C90.4886 13.9607 90.9277 13.3218 91.3376 12.6733C91.7621 12.0248 92.15 11.3764 92.5013 10.7279C92.8672 10.0794 93.1966 9.45006 93.4894 8.83974C93.7821 8.21035 94.0237 7.60004 94.214 7.00879C94.4189 6.41755 94.5726 5.85491 94.6751 5.32089C94.7922 4.76779 94.8507 4.25283 94.8507 3.77602C94.8507 3.50901 94.8214 3.28014 94.7629 3.08942C94.7043 2.89869 94.6165 2.75565 94.4994 2.66029C94.3823 2.54585 94.2359 2.48864 94.0603 2.48864C93.826 2.48864 93.5992 2.62214 93.3796 2.88916C93.16 3.1371 92.9331 3.60437 92.6989 4.29098C92.4647 4.97758 92.1866 5.95981 91.8645 7.23766L90.0201 14.5901Z" fill="#1E1E1E"/>
<path d="M94.6922 29.8384C94.4873 29.8384 94.3336 29.724 94.2311 29.4951C94.1286 29.2853 94.092 29.0469 94.1213 28.7799C94.136 28.4938 94.2238 28.2459 94.3848 28.0361C94.5458 27.8072 94.78 27.6928 95.0874 27.6928C95.468 27.6928 95.8706 27.5116 96.2951 27.1492C96.7196 26.7869 97.1587 26.2814 97.6125 25.633C98.0517 24.9845 98.5054 24.2216 98.9739 23.3443C99.4423 22.467 99.918 21.5133 100.401 20.4834C100.518 20.2355 100.679 20.1306 100.884 20.1687C101.089 20.2069 101.257 20.3309 101.389 20.5407C101.521 20.7314 101.528 20.9507 101.411 21.1986C100.782 22.6291 100.182 23.8879 99.6106 24.975C99.0544 26.0621 98.5128 26.968 97.9858 27.6928C97.4442 28.3985 96.9099 28.9325 96.3829 29.2949C95.8413 29.6573 95.2777 29.8384 94.6922 29.8384Z" fill="#1E1E1E"/>
<path d="M101.872 29.8384C101.375 29.8384 100.943 29.6668 100.577 29.3235C100.211 28.9802 99.9253 28.4938 99.7204 27.8645C99.5155 27.2351 99.413 26.4912 99.413 25.633C99.413 24.7556 99.5155 23.8116 99.7204 22.8007C99.9253 21.7899 100.233 20.7981 100.643 19.8254C101.052 18.8527 101.55 17.9659 102.136 17.1648C102.721 16.3638 103.395 15.7249 104.156 15.2481C104.932 14.7522 105.781 14.5042 106.703 14.5042C107.259 14.5042 107.859 14.6377 108.503 14.9048C109.147 15.1527 109.726 15.5055 110.238 15.9633L109.843 17.9373C109.125 17.4414 108.489 17.1267 107.932 16.9932C107.376 16.8406 106.864 16.7643 106.395 16.7643C105.766 16.7643 105.188 16.955 104.661 17.3365C104.148 17.7179 103.687 18.2234 103.277 18.8527C102.882 19.4631 102.546 20.1497 102.267 20.9126C101.989 21.6564 101.777 22.4002 101.631 23.144C101.484 23.8879 101.411 24.5649 101.411 25.1752C101.411 25.6521 101.455 26.0716 101.543 26.434C101.631 26.7964 101.755 27.0729 101.916 27.2637C102.092 27.4544 102.289 27.5498 102.509 27.5498C103.051 27.5498 103.665 27.1683 104.353 26.4054C105.041 25.6234 105.773 24.4791 106.549 22.9724C107.34 21.4657 108.145 19.6347 108.964 17.4795L109.777 18.5381C108.825 21.0938 107.881 23.2108 106.944 24.8892C106.022 26.5485 105.137 27.7882 104.287 28.6083C103.438 29.4284 102.633 29.8384 101.872 29.8384ZM108.635 29.8384C107.976 29.8384 107.486 29.6763 107.164 29.3521C106.856 29.0469 106.659 28.656 106.571 28.1791C106.498 27.6833 106.498 27.1683 106.571 26.6343C106.644 26.0812 106.747 25.5758 106.878 25.118L109.338 15.5342C109.44 15.1527 109.557 14.9048 109.689 14.7903C109.835 14.6759 110.048 14.6187 110.326 14.6187C110.779 14.6187 111.065 14.714 111.182 14.9048C111.314 15.0764 111.328 15.353 111.226 15.7344L108.811 25.0894C108.562 26.0812 108.445 26.7678 108.459 27.1492C108.489 27.5116 108.672 27.6928 109.008 27.6928C109.213 27.6928 109.367 27.8072 109.469 28.0361C109.572 28.2459 109.608 28.4938 109.579 28.7799C109.565 29.0469 109.477 29.2853 109.316 29.4951C109.169 29.724 108.942 29.8384 108.635 29.8384Z" fill="#1E1E1E"/>
<path d="M108.674 29.8384C108.44 29.8384 108.293 29.724 108.235 29.4951C108.161 29.2853 108.161 29.0469 108.235 28.7799C108.293 28.4938 108.396 28.2459 108.542 28.0361C108.688 27.8072 108.849 27.6928 109.025 27.6928C109.289 27.6928 109.574 27.5593 109.881 27.2923C110.174 27.0253 110.482 26.6343 110.804 26.1193C111.111 25.6044 111.44 24.9845 111.792 24.2598C112.128 23.5159 112.48 22.6768 112.846 21.7422C113.504 20.102 114.09 18.7955 114.602 17.8228C115.129 16.8501 115.612 16.1254 116.051 15.6486C116.491 15.1718 116.908 14.8666 117.303 14.7331C117.713 14.5805 118.123 14.5042 118.533 14.5042C118.679 14.5042 118.774 14.6187 118.818 14.8475C118.862 15.0573 118.855 15.3053 118.796 15.5914C118.737 15.8584 118.635 16.1063 118.489 16.3352C118.357 16.545 118.181 16.6499 117.962 16.6499C117.801 16.6499 117.61 16.7071 117.391 16.8215C117.186 16.9169 116.944 17.1458 116.666 17.5081C116.403 17.8514 116.088 18.3759 115.722 19.0816C115.371 19.7873 114.961 20.7314 114.492 21.9139C113.804 23.7067 113.175 25.1371 112.604 26.2052C112.033 27.2541 111.514 28.0456 111.045 28.5797C110.577 29.0946 110.152 29.4284 109.772 29.581C109.376 29.7526 109.01 29.8384 108.674 29.8384Z" fill="#1E1E1E"/>
<path d="M114.075 29.7812C113.841 29.7812 113.621 29.7145 113.417 29.581C113.226 29.4475 113.175 29.1995 113.263 28.8371L116.117 17.3365C116.161 17.1458 116.154 16.9837 116.095 16.8501C116.051 16.7166 115.942 16.6499 115.766 16.6499C115.546 16.6499 115.407 16.545 115.349 16.3352C115.305 16.1063 115.312 15.8584 115.371 15.5914C115.444 15.3053 115.561 15.0573 115.722 14.8475C115.898 14.6187 116.095 14.5042 116.315 14.5042C116.856 14.5042 117.252 14.6377 117.501 14.9048C117.764 15.1527 117.925 15.4865 117.984 15.9061C118.042 16.3066 118.042 16.7357 117.984 17.1934C117.925 17.6512 117.852 18.0708 117.764 18.4522L117.369 19.9971C117.793 19.1198 118.225 18.3378 118.664 17.6512C119.118 16.9646 119.572 16.3924 120.026 15.9347C120.494 15.4579 120.962 15.105 121.431 14.8762C121.899 14.6282 122.368 14.5042 122.836 14.5042C123.612 14.5042 124.168 14.7522 124.505 15.2481C124.856 15.7249 125.025 16.3924 125.01 17.2507C125.01 18.1089 124.871 19.0816 124.593 20.1687L122.353 29.0374C122.28 29.2853 122.17 29.4665 122.024 29.581C121.877 29.7145 121.636 29.7812 121.299 29.7812C121.065 29.7812 120.845 29.7145 120.64 29.581C120.436 29.4475 120.384 29.1995 120.487 28.8371L122.836 19.5107C122.968 19.0149 123.048 18.5667 123.078 18.1661C123.122 17.7465 123.078 17.4128 122.946 17.1648C122.814 16.9169 122.543 16.7929 122.134 16.7929C121.665 16.7929 121.145 17.0695 120.575 17.6226C120.018 18.1757 119.44 18.9576 118.84 19.9685C118.24 20.9602 117.647 22.1427 117.061 23.5159C116.476 24.8701 115.92 26.3577 115.393 27.9789L115.129 29.0374C115.071 29.2853 114.961 29.4665 114.8 29.581C114.653 29.7145 114.412 29.7812 114.075 29.7812ZM130.324 29.8384C129.679 29.8384 129.204 29.6763 128.896 29.3521C128.589 29.0469 128.399 28.656 128.325 28.1791C128.252 27.6833 128.252 27.1683 128.325 26.6343C128.399 26.0812 128.494 25.5758 128.611 25.118L130.082 19.5107C130.214 19.0149 130.294 18.5667 130.324 18.1661C130.367 17.7465 130.324 17.4128 130.192 17.1648C130.06 16.9169 129.789 16.7929 129.379 16.7929C128.896 16.7929 128.362 17.079 127.777 17.6512C127.206 18.2234 126.613 19.0339 125.998 20.0829C125.398 21.1128 124.798 22.3335 124.198 23.7448C123.612 25.1371 123.056 26.6629 122.529 28.3222H121.65C122.236 26.167 122.858 24.2407 123.517 22.5433C124.176 20.8458 124.864 19.3963 125.581 18.1947C126.313 16.9932 127.052 16.0777 127.798 15.4483C128.56 14.8189 129.321 14.5042 130.082 14.5042C130.858 14.5042 131.414 14.7522 131.751 15.2481C132.102 15.7439 132.278 16.421 132.278 17.2793C132.278 18.1185 132.131 19.0816 131.839 20.1687L130.543 25.0894C130.28 26.1003 130.163 26.7869 130.192 27.1492C130.221 27.5116 130.404 27.6928 130.741 27.6928C130.96 27.6928 131.114 27.8072 131.202 28.0361C131.304 28.2459 131.341 28.4938 131.312 28.7799C131.282 29.0469 131.187 29.2853 131.026 29.4951C130.865 29.724 130.631 29.8384 130.324 29.8384Z" fill="#1E1E1E"/>
<path d="M130.351 29.8384C130.073 29.8384 129.89 29.724 129.802 29.4951C129.7 29.2853 129.678 29.0469 129.736 28.7799C129.78 28.4938 129.89 28.2459 130.066 28.0361C130.241 27.8072 130.468 27.6928 130.746 27.6928C131.347 27.6928 132.064 27.4735 132.898 27.0348C133.718 26.5961 134.64 25.9381 135.665 25.0608C135.84 24.9082 136.001 24.8796 136.148 24.975C136.294 25.0703 136.404 25.2325 136.477 25.4613C136.565 25.6902 136.594 25.9286 136.565 26.1765C136.536 26.4245 136.441 26.6247 136.28 26.7773C135.416 27.5211 134.618 28.1219 133.886 28.5797C133.14 29.0183 132.474 29.333 131.888 29.5237C131.288 29.7335 130.776 29.8384 130.351 29.8384Z" fill="#1E1E1E"/>
<path d="M135.665 25.2611C135.928 25.0513 136.184 24.8319 136.433 24.6031C136.682 24.3742 136.931 24.1453 137.18 23.9165C137.839 23.2871 138.431 22.6386 138.958 21.9711C139.485 21.3035 139.903 20.6455 140.21 19.9971C140.532 19.3486 140.693 18.7478 140.693 18.1947C140.693 17.7561 140.62 17.4128 140.473 17.1648C140.327 16.9169 140.107 16.7929 139.815 16.7929C139.61 16.7929 139.456 16.6785 139.354 16.4496C139.266 16.2208 139.236 15.9537 139.266 15.6486C139.295 15.3434 139.39 15.0764 139.551 14.8475C139.727 14.6187 139.968 14.5042 140.276 14.5042C140.715 14.5042 141.117 14.6282 141.483 14.8762C141.849 15.105 142.135 15.4483 142.34 15.9061C142.559 16.3447 142.669 16.8788 142.669 17.5081C142.669 18.3664 142.457 19.2723 142.032 20.226C141.623 21.1605 141.074 22.0951 140.386 23.0296C139.698 23.9451 138.929 24.8033 138.08 25.6044C137.802 25.8523 137.517 26.1098 137.224 26.3768C136.931 26.6247 136.638 26.8631 136.345 27.092L135.665 25.2611Z" fill="#1E1E1E"/>
<path d="M138.571 29.8384C138.087 29.8384 137.663 29.7335 137.297 29.5237C136.916 29.333 136.587 29.0565 136.309 28.6941C136.016 28.3127 135.782 27.874 135.606 27.3781C135.416 26.8822 135.277 26.3482 135.189 25.776C135.101 25.1848 135.057 24.5649 135.057 23.9165C135.057 22.9819 135.153 21.9711 135.343 20.884C135.533 19.7968 135.841 18.7765 136.265 17.8228C136.675 16.8501 137.217 16.0586 137.89 15.4483C138.549 14.8189 139.346 14.5042 140.283 14.5042C140.488 14.5042 140.62 14.6187 140.678 14.8475C140.737 15.0764 140.744 15.3434 140.7 15.6486C140.642 15.9537 140.539 16.2208 140.393 16.4496C140.232 16.6785 140.049 16.7929 139.844 16.7929C139.346 16.7929 138.922 17.0504 138.571 17.5654C138.205 18.0612 137.904 18.6906 137.67 19.4535C137.436 20.2164 137.268 21.0079 137.165 21.828C137.048 22.6291 136.99 23.3443 136.99 23.9737C136.99 24.5077 137.026 25.0036 137.099 25.4613C137.173 25.9 137.29 26.2814 137.451 26.6057C137.612 26.9299 137.831 27.1874 138.109 27.3781C138.388 27.5498 138.724 27.6356 139.119 27.6356C139.764 27.6356 140.43 27.34 141.118 26.7487C141.806 26.1384 142.596 25.1752 143.489 23.8592C144.382 22.5433 145.436 20.8172 146.651 18.6811C146.724 18.5476 146.848 18.5381 147.024 18.6525C147.214 18.7669 147.375 18.9195 147.507 19.1102C147.639 19.2819 147.675 19.4249 147.617 19.5394C146.621 21.4847 145.714 23.125 144.894 24.46C144.089 25.776 143.335 26.8345 142.633 27.6356C141.93 28.4175 141.249 28.9802 140.591 29.3235C139.932 29.6668 139.259 29.8384 138.571 29.8384Z" fill="#1E1E1E"/>
<path d="M147.024 29.8384C146.526 29.8384 146.087 29.6668 145.707 29.3235C145.341 28.9802 145.055 28.4938 144.85 27.8645C144.645 27.2351 144.543 26.4912 144.543 25.633C144.543 24.7556 144.645 23.8116 144.85 22.8007C145.055 21.7899 145.363 20.7981 145.772 19.8254C146.182 18.8527 146.68 17.9659 147.266 17.1648C147.866 16.3638 148.546 15.7249 149.308 15.2481C150.069 14.7522 150.918 14.5042 151.855 14.5042C152.279 14.5042 152.733 14.5805 153.216 14.7331C153.714 14.8857 154.189 15.105 154.643 15.3911L158.244 1.22986C158.332 0.848413 158.442 0.600472 158.574 0.486037C158.72 0.371602 158.939 0.314384 159.232 0.314384C159.686 0.314384 159.971 0.409747 160.089 0.600473C160.22 0.772123 160.235 1.04867 160.132 1.43012L153.787 26.4054C153.699 26.8059 153.67 27.1111 153.699 27.3209C153.728 27.5116 153.831 27.607 154.006 27.607C154.153 27.607 154.292 27.5498 154.424 27.4353C154.555 27.3209 154.702 27.1492 154.863 26.9204C155.038 26.6915 155.243 26.3959 155.478 26.0335C155.595 25.8428 155.712 25.7379 155.829 25.7188C155.946 25.6807 156.085 25.7379 156.246 25.8905C156.48 26.0812 156.619 26.2719 156.663 26.4626C156.722 26.6534 156.707 26.8441 156.619 27.0348C156.312 27.6642 155.99 28.1887 155.653 28.6083C155.331 29.0088 154.987 29.3044 154.621 29.4951C154.27 29.6859 153.897 29.7812 153.501 29.7812C152.974 29.7812 152.572 29.6096 152.294 29.2663C152.016 28.923 151.869 28.408 151.855 27.7214C151.84 27.0348 151.95 26.1861 152.184 25.1752C152.199 25.118 152.206 25.0608 152.206 25.0036C152.221 24.9273 152.235 24.8605 152.25 24.8033C151.62 25.9286 150.998 26.8727 150.383 27.6356C149.783 28.3794 149.198 28.9325 148.627 29.2949C148.056 29.6573 147.522 29.8384 147.024 29.8384ZM146.541 25.1752C146.541 25.6521 146.585 26.0716 146.673 26.434C146.761 26.7964 146.885 27.0729 147.046 27.2637C147.222 27.4544 147.419 27.5498 147.639 27.5498C148.151 27.5498 148.744 27.2065 149.417 26.5198C150.091 25.8142 150.801 24.7938 151.547 23.4587C152.308 22.1046 153.077 20.4548 153.853 18.5094L154.116 17.3937C153.618 17.1267 153.15 16.955 152.711 16.8788C152.286 16.8025 151.899 16.7643 151.547 16.7643C150.918 16.7643 150.34 16.955 149.813 17.3365C149.286 17.7179 148.817 18.2234 148.407 18.8527C148.012 19.4631 147.675 20.1497 147.397 20.9126C147.119 21.6564 146.907 22.4002 146.761 23.144C146.614 23.8879 146.541 24.5649 146.541 25.1752Z" fill="#1E1E1E"/>
<path d="M1.09034 29.7526C0.768306 29.7526 0.526777 29.6859 0.365758 29.5524C0.204739 29.4188 0.160825 29.1995 0.234015 28.8944L5.92092 6.15054C5.55497 6.62735 5.16706 7.08508 4.75719 7.52375C4.34732 7.96241 3.9155 8.40108 3.46172 8.83974C3.02258 9.25934 2.55416 9.698 2.05646 10.1557C1.74906 10.4228 1.49289 10.5086 1.28796 10.4132C1.08303 10.3179 0.900049 10.0985 0.73903 9.75522C0.592649 9.45006 0.534096 9.16397 0.563373 8.89696C0.592649 8.61087 0.746349 8.36293 1.02447 8.15314C1.88812 7.44746 2.6859 6.73224 3.4178 6.00749C4.16435 5.26367 4.84502 4.49124 5.45982 3.6902C6.07462 2.87009 6.60891 2.02136 7.0627 1.14403C7.23835 0.819804 7.39937 0.600472 7.54575 0.486037C7.69213 0.371602 7.92634 0.314384 8.24838 0.314384C8.58506 0.314384 8.82659 0.381138 8.97297 0.514647C9.13399 0.648153 9.17058 0.867485 9.08276 1.17264L7.85315 6.17914C8.42404 5.26367 9.01688 4.44356 9.63168 3.71881C10.2611 2.99406 10.8979 2.38374 11.542 1.88786C12.2007 1.3729 12.8521 0.981919 13.4961 0.714906C14.1549 0.447891 14.7989 0.314384 15.4284 0.314384C16.2627 0.314384 16.9947 0.505108 17.6241 0.886557C18.2682 1.24893 18.7659 1.8211 19.1172 2.60307C19.4685 3.38504 19.6442 4.36727 19.6442 5.54976C19.6442 6.46523 19.5124 7.3807 19.2489 8.29618C18.9854 9.21165 18.5975 10.089 18.0852 10.9282C17.5875 11.7674 16.98 12.5589 16.2627 13.3027C15.5455 14.0465 14.7257 14.7236 13.8035 15.3339C12.8813 15.9251 11.8786 16.4306 10.7954 16.8501C10.8832 17.2697 10.9711 17.6798 11.0589 18.0803C11.1614 18.4618 11.2565 18.8527 11.3443 19.2533C11.4468 19.6347 11.5493 20.0352 11.6517 20.4548C11.7688 20.8744 11.8933 21.3417 12.025 21.8566C12.2592 22.8103 12.4861 23.6304 12.7057 24.317C12.9399 24.9845 13.1668 25.5472 13.3864 26.0049C13.6059 26.4436 13.8255 26.7869 14.0451 27.0348C14.2646 27.2827 14.4842 27.4544 14.7038 27.5498C14.938 27.6451 15.1722 27.6928 15.4064 27.6928C15.6845 27.6928 15.8675 27.8072 15.9553 28.0361C16.0432 28.2459 16.0578 28.4938 15.9993 28.7799C15.9553 29.0469 15.8382 29.2853 15.6479 29.4951C15.4723 29.724 15.2454 29.8384 14.9673 29.8384C14.3964 29.8384 13.8841 29.6859 13.4303 29.3807C12.9911 29.0946 12.5886 28.656 12.2226 28.0647C11.8713 27.4544 11.5346 26.701 11.2126 25.8046C10.8906 24.9082 10.5685 23.8592 10.2465 22.6577C10.1001 22.0855 9.96836 21.5706 9.85125 21.1128C9.74879 20.6551 9.64632 20.2355 9.54385 19.854C9.44139 19.4535 9.33892 19.0435 9.23645 18.6239C9.14863 18.2043 9.04616 17.7465 8.92905 17.2507C8.63629 17.2125 8.36549 17.1267 8.11664 16.9932C7.86779 16.8406 7.67018 16.6403 7.5238 16.3924C7.39205 16.1445 7.32618 15.8584 7.32618 15.5342C7.32618 15.0955 7.45792 14.7331 7.72141 14.447C7.9849 14.1609 8.32157 14.0179 8.73144 14.0179C9.08276 14.0179 9.39015 14.1133 9.65364 14.304C9.93177 14.4947 10.1513 14.714 10.3124 14.962C11.1321 14.6187 11.9079 14.1991 12.6398 13.7032C13.3864 13.1882 14.0597 12.6256 14.6599 12.0153C15.2747 11.3859 15.8016 10.7279 16.2408 10.0413C16.6946 9.33563 17.0386 8.61087 17.2728 7.86705C17.5216 7.12323 17.646 6.36987 17.646 5.60697C17.646 4.90129 17.5436 4.33866 17.3386 3.91907C17.1484 3.49947 16.8776 3.19432 16.5262 3.00359C16.1749 2.81287 15.7651 2.71751 15.2966 2.71751C14.594 2.71751 13.8694 2.9273 13.1229 3.3469C12.3763 3.74741 11.6371 4.31959 10.9052 5.06341C10.1879 5.80723 9.49994 6.70363 8.84122 7.75262C8.18251 8.78253 7.57503 9.92687 7.01878 11.1856C6.47717 12.4444 6.00875 13.7795 5.61352 15.1908L2.21016 28.9516C2.15161 29.2186 2.0345 29.4188 1.85885 29.5524C1.68319 29.6859 1.42702 29.7526 1.09034 29.7526Z" stroke="#1E1E1E" stroke-width="0.4" mask="url(#path-1-outside-1_130_1570)"/>
<path d="M15.0117 29.8384C14.8068 29.8384 14.6531 29.724 14.5506 29.4951C14.4481 29.2853 14.4115 29.0469 14.4408 28.7799C14.4555 28.4938 14.5433 28.2459 14.7043 28.0361C14.8653 27.8072 15.0995 27.6928 15.4069 27.6928C15.7875 27.6928 16.1901 27.5116 16.6146 27.1492C17.0391 26.7869 17.4782 26.2814 17.932 25.633C18.3712 24.9845 18.8249 24.2216 19.2934 23.3443C19.7618 22.467 20.2375 21.5133 20.7206 20.4834C20.8377 20.2355 20.9987 20.1306 21.2036 20.1687C21.4086 20.2069 21.5769 20.3309 21.7086 20.5407C21.8404 20.7314 21.8477 20.9507 21.7306 21.1986C21.1012 22.6291 20.501 23.8879 19.9301 24.975C19.3739 26.0621 18.8323 26.968 18.3053 27.6928C17.7637 28.3985 17.2294 28.9325 16.7024 29.2949C16.1608 29.6573 15.5972 29.8384 15.0117 29.8384Z" stroke="#1E1E1E" stroke-width="0.4" mask="url(#path-1-outside-1_130_1570)"/>
<path d="M22.1917 29.8384C21.694 29.8384 21.2622 29.6668 20.8962 29.3235C20.5303 28.9802 20.2448 28.4938 20.0399 27.8645C19.835 27.2351 19.7325 26.4912 19.7325 25.633C19.7325 24.7556 19.835 23.8116 20.0399 22.8007C20.2448 21.7899 20.5522 20.7981 20.9621 19.8254C21.372 18.8527 21.8697 17.9659 22.4552 17.1648C23.0407 16.3638 23.7141 15.7249 24.4752 15.2481C25.2511 14.7522 26.1001 14.5042 27.0223 14.5042C27.5785 14.5042 28.1787 14.6377 28.8228 14.9048C29.4668 15.1527 30.045 15.5055 30.5574 15.9633L30.1621 17.9373C29.4449 17.4414 28.8081 17.1267 28.2519 16.9932C27.6956 16.8406 27.1833 16.7643 26.7149 16.7643C26.0854 16.7643 25.5072 16.955 24.9803 17.3365C24.4679 17.7179 24.0068 18.2234 23.597 18.8527C23.2017 19.4631 22.8651 20.1497 22.5869 20.9126C22.3088 21.6564 22.0965 22.4002 21.9502 23.144C21.8038 23.8879 21.7306 24.5649 21.7306 25.1752C21.7306 25.6521 21.7745 26.0716 21.8623 26.434C21.9502 26.7964 22.0746 27.0729 22.2356 27.2637C22.4113 27.4544 22.6089 27.5498 22.8285 27.5498C23.3701 27.5498 23.9849 27.1683 24.6729 26.4054C25.3608 25.6234 26.0928 24.4791 26.8686 22.9724C27.659 21.4657 28.4641 19.6347 29.2839 17.4795L30.0963 18.5381C29.1448 21.0938 28.2006 23.2108 27.2638 24.8892C26.3416 26.5485 25.456 27.7882 24.607 28.6083C23.758 29.4284 22.9529 29.8384 22.1917 29.8384ZM28.9545 29.8384C28.2958 29.8384 27.8054 29.6763 27.4834 29.3521C27.176 29.0469 26.9784 28.656 26.8905 28.1791C26.8173 27.6833 26.8173 27.1683 26.8905 26.6343C26.9637 26.0812 27.0662 25.5758 27.1979 25.118L29.6571 15.5342C29.7596 15.1527 29.8767 14.9048 30.0084 14.7903C30.1548 14.6759 30.3671 14.6187 30.6452 14.6187C31.099 14.6187 31.3844 14.714 31.5015 14.9048C31.6333 15.0764 31.6479 15.353 31.5455 15.7344L29.1302 25.0894C28.8813 26.0812 28.7642 26.7678 28.7788 27.1492C28.8081 27.5116 28.9911 27.6928 29.3278 27.6928C29.5327 27.6928 29.6864 27.8072 29.7889 28.0361C29.8913 28.2459 29.9279 28.4938 29.8987 28.7799C29.884 29.0469 29.7962 29.2853 29.6352 29.4951C29.4888 29.724 29.2619 29.8384 28.9545 29.8384Z" stroke="#1E1E1E" stroke-width="0.4" mask="url(#path-1-outside-1_130_1570)"/>
<path d="M28.9494 29.8384C28.7444 29.8384 28.5907 29.724 28.4883 29.4951C28.3858 29.2853 28.3492 29.0469 28.3785 28.7799C28.3931 28.4938 28.4809 28.2459 28.642 28.0361C28.803 27.8072 29.0372 27.6928 29.3446 27.6928C29.6959 27.6928 30.0985 27.4639 30.5522 27.0062C30.9914 26.5485 31.511 25.8332 32.1112 24.8605C32.7114 23.8688 33.4213 22.5814 34.241 20.9984C35.0608 19.3963 36.0196 17.4605 37.1174 15.1908C37.2492 14.9238 37.4175 14.8094 37.6224 14.8475C37.842 14.8857 38.0177 15.0097 38.1494 15.2195C38.2812 15.4293 38.2885 15.6581 38.1714 15.9061C36.9271 18.6525 35.8512 20.9316 34.9437 22.7435C34.0507 24.5363 33.2676 25.9572 32.5942 27.0062C31.9209 28.0361 31.2988 28.7704 30.7279 29.2091C30.1424 29.6286 29.5495 29.8384 28.9494 29.8384Z" stroke="#1E1E1E" stroke-width="0.4" mask="url(#path-1-outside-1_130_1570)"/>
<path d="M28.3785 44.2C27.8954 44.2 27.4782 44.0569 27.1269 43.7708C26.7756 43.5038 26.4975 43.1224 26.2925 42.6265C26.0876 42.1497 25.9851 41.6061 25.9851 40.9958C25.9851 40.3092 26.0876 39.6035 26.2925 38.8787C26.4975 38.154 26.8049 37.4197 27.2147 36.6759C27.6246 35.9321 28.1369 35.1692 28.7517 34.3872C29.3665 33.6243 30.0838 32.8423 30.9035 32.0413C31.2841 31.7171 31.6647 31.3833 32.0453 31.04C32.4113 30.7158 32.7845 30.382 33.1651 30.0387L36.7881 15.5342C36.8905 15.1527 37.0076 14.9048 37.1394 14.7903C37.2858 14.6759 37.498 14.6187 37.7761 14.6187C38.2299 14.6187 38.5154 14.714 38.6325 14.9048C38.7642 15.0764 38.7789 15.353 38.6764 15.7344L33.4725 36.5615C33.1359 37.8965 32.7919 39.0409 32.4406 39.9945C32.0892 40.9672 31.716 41.7587 31.3207 42.369C30.9109 42.9984 30.4717 43.4561 30.0033 43.7422C29.5202 44.0474 28.9786 44.2 28.3785 44.2ZM28.7298 41.9971C29.0079 41.9971 29.2714 41.8731 29.5202 41.6252C29.7545 41.3963 29.9887 41.0435 30.2229 40.5667C30.4424 40.0898 30.6693 39.4795 30.9035 38.7357C31.1378 38.011 31.3793 37.1527 31.6281 36.1609L32.3527 33.2143C32.1917 33.3478 32.038 33.4813 31.8916 33.6148C31.7306 33.7674 31.5696 33.9104 31.4086 34.0439C30.8084 34.6733 30.2887 35.2836 29.8496 35.8749C29.4105 36.4661 29.0445 37.0287 28.7517 37.5628C28.459 38.0968 28.2467 38.6213 28.115 39.1362C27.9832 39.6512 27.9174 40.1661 27.9174 40.6811C27.9174 40.9481 27.954 41.177 28.0272 41.3677C28.0857 41.5584 28.1735 41.711 28.2906 41.8254C28.4078 41.9399 28.5541 41.9971 28.7298 41.9971ZM39.2253 10.213C38.9033 10.213 38.6471 10.0794 38.4568 9.81243C38.2665 9.54542 38.1714 9.19258 38.1714 8.75392C38.1714 8.10546 38.3104 7.5905 38.5886 7.20905C38.8813 6.80853 39.2692 6.60827 39.7523 6.60827C40.089 6.60827 40.3524 6.74178 40.5427 7.00879C40.733 7.27581 40.8282 7.62865 40.8282 8.06731C40.8282 8.71577 40.6818 9.24026 40.389 9.64078C40.0963 10.0222 39.7084 10.213 39.2253 10.213Z" stroke="#1E1E1E" stroke-width="0.4" mask="url(#path-1-outside-1_130_1570)"/>
<path d="M34.5134 31.2117C34.3232 31.3452 34.1548 31.3452 34.0084 31.2117C33.8474 31.0972 33.7376 30.916 33.6791 30.6681C33.6205 30.4201 33.6205 30.1627 33.6791 29.8957C33.723 29.6286 33.8474 29.4284 34.0523 29.2949C34.9599 28.6273 35.7943 27.9407 36.5555 27.2351C37.3166 26.5103 38.0266 25.7474 38.6853 24.9464C39.344 24.1453 39.9588 23.2871 40.5297 22.3716C41.1152 21.4561 41.6788 20.4739 42.2204 19.4249C42.7767 18.3569 43.3256 17.2125 43.8672 15.9919C44.0136 15.7058 44.1819 15.5628 44.3722 15.5628C44.5625 15.5628 44.7089 15.6772 44.8114 15.9061C44.9138 16.1349 44.8919 16.421 44.7455 16.7643C44.1746 18.1757 43.6037 19.4726 43.0328 20.6551C42.4619 21.8376 41.8691 22.9247 41.2543 23.9165C40.6541 24.9082 40.0174 25.8237 39.344 26.6629C38.656 27.5021 37.9168 28.3031 37.1263 29.066C36.3359 29.8098 35.4649 30.525 34.5134 31.2117Z" stroke="#1E1E1E" stroke-width="0.4" mask="url(#path-1-outside-1_130_1570)"/>
<path d="M43.3841 29.7812C42.7108 29.7812 42.1838 29.5714 41.8032 29.1518C41.4373 28.7132 41.2397 28.0742 41.2104 27.2351C41.1811 26.3768 41.3202 25.3374 41.6276 24.1167L43.8233 15.5342C43.9257 15.1527 44.0429 14.9048 44.1746 14.7903C44.321 14.6759 44.5332 14.6187 44.8114 14.6187C45.2651 14.6187 45.5506 14.714 45.6677 14.9048C45.7994 15.0764 45.8141 15.353 45.7116 15.7344L43.3841 24.7747C43.2524 25.2515 43.1646 25.6997 43.1207 26.1193C43.0914 26.5389 43.1426 26.8727 43.2744 27.1206C43.4207 27.3686 43.6915 27.4925 44.0868 27.4925C44.5991 27.4925 45.1553 27.2065 45.7555 26.6343C46.3557 26.0621 46.9705 25.2611 47.5999 24.2312C48.244 23.2013 48.8734 21.9902 49.4882 20.5979C50.103 19.1865 50.6739 17.6416 51.2009 15.9633L51.3107 15.5342C51.4131 15.1527 51.5303 14.9048 51.662 14.7903C51.8084 14.6759 52.0206 14.6187 52.2988 14.6187C52.7525 14.6187 53.038 14.714 53.1551 14.9048C53.2868 15.0764 53.3015 15.353 53.199 15.7344L50.4983 26.4054C50.4104 26.7487 50.3592 27.0062 50.3446 27.1778C50.3446 27.3495 50.3738 27.4639 50.4324 27.5211C50.4909 27.5784 50.5568 27.607 50.63 27.607C50.7764 27.607 50.9228 27.5498 51.0692 27.4353C51.2155 27.3018 51.3692 27.1206 51.5303 26.8918C51.6913 26.6629 51.8669 26.3863 52.0572 26.0621C52.189 25.8332 52.3353 25.7188 52.4964 25.7188C52.6574 25.7188 52.833 25.7951 53.0233 25.9477C53.2136 26.1384 53.3307 26.3196 53.3746 26.4912C53.4332 26.6438 53.4112 26.8059 53.3088 26.9776C53.1624 27.2827 52.9428 27.6547 52.6501 28.0933C52.3719 28.532 52.0206 28.923 51.5961 29.2663C51.1863 29.6096 50.7178 29.7812 50.1909 29.7812C49.62 29.7812 49.2028 29.6286 48.9393 29.3235C48.6905 28.9993 48.5441 28.5987 48.5002 28.1219C48.4709 27.6451 48.4928 27.1397 48.566 26.6057C48.6539 26.0716 48.7563 25.5758 48.8734 25.118L49.115 24.2026C48.6758 25.099 48.222 25.8905 47.7536 26.5771C47.2852 27.2637 46.8021 27.8454 46.3044 28.3222C45.8214 28.799 45.331 29.1614 44.8333 29.4093C44.3503 29.6573 43.8672 29.7812 43.3841 29.7812Z" stroke="#1E1E1E" stroke-width="0.4" mask="url(#path-1-outside-1_130_1570)"/>
<path d="M68.5844 29.8384C67.8525 29.8384 67.1792 29.6477 66.5644 29.2663C65.9642 28.8848 65.4446 28.3413 65.0054 27.6356C64.5663 26.9299 64.2296 26.0812 63.9954 25.0894C63.7612 24.0786 63.6441 22.9533 63.6441 21.7136C63.6441 19.9208 63.8197 18.1471 64.1711 16.3924C64.537 14.6377 65.042 12.9594 65.6861 11.3573C66.3302 9.75522 67.0914 8.28664 67.9697 6.95158C68.8479 5.61651 69.8067 4.45309 70.846 3.46133C71.9 2.45049 73.0052 1.67806 74.1616 1.14403C75.318 0.590934 76.5037 0.314384 77.7186 0.314384C78.4505 0.314384 79.1312 0.419282 79.7607 0.629079C80.3901 0.819804 80.9683 1.10589 81.4953 1.48734C82.0369 1.86879 82.5053 2.34559 82.9005 2.91777L83.3616 1.08682C83.4348 0.819803 83.5519 0.629079 83.7129 0.514647C83.8886 0.381138 84.1301 0.314384 84.4375 0.314384C84.7742 0.314384 85.0231 0.381138 85.1841 0.514647C85.3451 0.648153 85.3817 0.867485 85.2939 1.17264L80.0241 22.0283C79.7899 22.9819 79.6069 23.8116 79.4752 24.5172C79.3435 25.2229 79.2776 25.8142 79.2776 26.291C79.2776 26.7487 79.3508 27.1016 79.4972 27.3495C79.6582 27.5784 79.907 27.6928 80.2437 27.6928C80.5218 27.6928 80.7048 27.8072 80.7926 28.0361C80.8951 28.2459 80.9171 28.4938 80.8585 28.7799C80.8 29.0469 80.6829 29.2853 80.5072 29.4951C80.3315 29.724 80.1046 29.8384 79.8265 29.8384C79.241 29.8384 78.7579 29.6859 78.3773 29.3807C77.9968 29.0755 77.726 28.5987 77.5649 27.9503C77.4185 27.2827 77.3893 26.4436 77.4771 25.4327C77.5796 24.4028 77.8065 23.1822 78.1578 21.7708L78.7067 19.5394C77.8431 21.2368 76.9794 22.7244 76.1158 24.0023C75.2521 25.2801 74.3958 26.3577 73.5468 27.2351C72.6978 28.0933 71.8561 28.7418 71.0217 29.1804C70.1873 29.6191 69.3749 29.8384 68.5844 29.8384ZM65.6641 21.7994C65.6641 22.734 65.7447 23.5541 65.9057 24.2598C66.0813 24.9464 66.3229 25.5281 66.6303 26.0049C66.9377 26.4626 67.289 26.8155 67.6842 27.0634C68.0794 27.2923 68.5039 27.4067 68.9577 27.4067C69.6457 27.4067 70.3557 27.1874 71.0876 26.7487C71.8341 26.291 72.5953 25.6234 73.3711 24.7461C74.1616 23.8497 74.9593 22.7626 75.7644 21.4847C76.5842 20.1878 77.4112 18.7097 78.2456 17.0504C79.0946 15.372 79.929 13.522 80.7487 11.5003L82.2638 5.43532C81.7661 4.51985 81.1293 3.84278 80.3535 3.40411C79.5777 2.96545 78.5969 2.74611 77.4112 2.74611C76.4158 2.74611 75.4424 3.00359 74.4909 3.51855C73.5395 4.01443 72.6246 4.72964 71.7463 5.66419C70.868 6.57966 70.0556 7.64772 69.309 8.86835C68.5771 10.0699 67.9331 11.3859 67.3768 12.8163C66.8352 14.2277 66.4107 15.6963 66.1033 17.2221C65.8105 18.7478 65.6641 20.2736 65.6641 21.7994Z" stroke="#1E1E1E" stroke-width="0.4" mask="url(#path-1-outside-1_130_1570)"/>
<path d="M79.854 29.8384C79.5758 29.8384 79.3929 29.724 79.305 29.4951C79.2026 29.2853 79.1806 29.0469 79.2392 28.7799C79.2831 28.4938 79.3929 28.2459 79.5685 28.0361C79.7442 27.8072 79.9711 27.6928 80.2492 27.6928C80.5127 27.6928 80.842 27.5116 81.2373 27.1492C81.6179 26.7678 82.0936 26.167 82.6645 25.3469C83.2354 24.5077 83.9234 23.411 84.7285 22.0569C85.5336 20.7028 86.485 19.0435 87.5829 17.079C87.7585 16.7739 87.9415 16.6499 88.1318 16.7071C88.3368 16.7643 88.4758 16.9264 88.549 17.1934C88.6368 17.4605 88.5929 17.7561 88.4173 18.0803C87.2169 20.369 86.1703 22.2762 85.2774 23.802C84.3991 25.3088 83.6379 26.5103 82.9938 27.4067C82.3351 28.284 81.7569 28.9134 81.2592 29.2949C80.7615 29.6573 80.2931 29.8384 79.854 29.8384Z" stroke="#1E1E1E" stroke-width="0.4" mask="url(#path-1-outside-1_130_1570)"/>
<path d="M94.697 29.8384C94.0529 29.8384 93.5699 29.6763 93.2478 29.3521C92.9404 29.0469 92.7501 28.656 92.677 28.1791C92.6038 27.6833 92.6038 27.1683 92.677 26.6343C92.7501 26.0812 92.8453 25.5758 92.9624 25.118L94.4555 19.5107C94.5872 19.0149 94.6677 18.5667 94.697 18.1661C94.7409 17.7465 94.6897 17.4128 94.5433 17.1648C94.4116 16.9169 94.1408 16.7929 93.7309 16.7929C93.2332 16.7929 92.677 17.079 92.0622 17.6512C91.462 18.2234 90.8399 19.0244 90.1958 20.0543C89.5517 21.0842 88.915 22.3048 88.2855 23.7162C87.6707 25.1085 87.0998 26.6438 86.5729 28.3222L86.4631 25.7474C87.0193 23.9737 87.6122 22.4002 88.2416 21.027C88.871 19.6347 89.5298 18.4522 90.2178 17.4795C90.9057 16.5068 91.6011 15.7726 92.3037 15.2767C93.0209 14.7617 93.7382 14.5042 94.4555 14.5042C95.1288 14.5042 95.6485 14.7236 96.0144 15.1622C96.395 15.5818 96.6 16.2112 96.6292 17.0504C96.6732 17.8896 96.5341 18.929 96.2121 20.1687L94.9166 25.0894C94.6531 26.0812 94.5287 26.7678 94.5433 27.1492C94.5726 27.5116 94.7629 27.6928 95.1142 27.6928C95.3191 27.6928 95.4655 27.8072 95.5533 28.0361C95.6558 28.2459 95.6924 28.4938 95.6631 28.7799C95.6485 29.0469 95.5607 29.2853 95.3996 29.4951C95.2386 29.724 95.0044 29.8384 94.697 29.8384ZM85.3652 29.7812C85.131 29.7812 84.9114 29.7145 84.7065 29.581C84.5016 29.4475 84.443 29.1995 84.5308 28.8371L90.108 6.57966C90.6496 4.3482 91.2497 2.72704 91.9085 1.71621C92.5818 0.70537 93.3869 0.199951 94.3237 0.199951C94.8068 0.199951 95.2167 0.342994 95.5533 0.629079C95.9047 0.915166 96.1755 1.31569 96.3658 1.83064C96.5707 2.32652 96.6732 2.89869 96.6732 3.54715C96.6732 4.06211 96.6146 4.61521 96.4975 5.20645C96.3804 5.77863 96.2121 6.38894 95.9925 7.0374C95.7876 7.66679 95.5241 8.33432 95.202 9.04C94.8946 9.72661 94.5287 10.4323 94.1042 11.157C93.6943 11.8627 93.2405 12.5875 92.7428 13.3313C92.2451 14.056 91.6962 14.7999 91.096 15.5628C90.5105 16.3066 89.8811 17.0599 89.2077 17.8228L86.3972 29.0374C86.3387 29.2853 86.2362 29.4665 86.0898 29.581C85.9434 29.7145 85.7019 29.7812 85.3652 29.7812ZM90.0201 14.5901C90.4886 13.9607 90.9277 13.3218 91.3376 12.6733C91.7621 12.0248 92.15 11.3764 92.5013 10.7279C92.8672 10.0794 93.1966 9.45006 93.4894 8.83974C93.7821 8.21035 94.0237 7.60004 94.214 7.00879C94.4189 6.41755 94.5726 5.85491 94.6751 5.32089C94.7922 4.76779 94.8507 4.25283 94.8507 3.77602C94.8507 3.50901 94.8214 3.28014 94.7629 3.08942C94.7043 2.89869 94.6165 2.75565 94.4994 2.66029C94.3823 2.54585 94.2359 2.48864 94.0603 2.48864C93.826 2.48864 93.5992 2.62214 93.3796 2.88916C93.16 3.1371 92.9331 3.60437 92.6989 4.29098C92.4647 4.97758 92.1866 5.95981 91.8645 7.23766L90.0201 14.5901Z" stroke="#1E1E1E" stroke-width="0.4" mask="url(#path-1-outside-1_130_1570)"/>
<path d="M94.6922 29.8384C94.4873 29.8384 94.3336 29.724 94.2311 29.4951C94.1286 29.2853 94.092 29.0469 94.1213 28.7799C94.136 28.4938 94.2238 28.2459 94.3848 28.0361C94.5458 27.8072 94.78 27.6928 95.0874 27.6928C95.468 27.6928 95.8706 27.5116 96.2951 27.1492C96.7196 26.7869 97.1587 26.2814 97.6125 25.633C98.0517 24.9845 98.5054 24.2216 98.9739 23.3443C99.4423 22.467 99.918 21.5133 100.401 20.4834C100.518 20.2355 100.679 20.1306 100.884 20.1687C101.089 20.2069 101.257 20.3309 101.389 20.5407C101.521 20.7314 101.528 20.9507 101.411 21.1986C100.782 22.6291 100.182 23.8879 99.6106 24.975C99.0544 26.0621 98.5128 26.968 97.9858 27.6928C97.4442 28.3985 96.9099 28.9325 96.3829 29.2949C95.8413 29.6573 95.2777 29.8384 94.6922 29.8384Z" stroke="#1E1E1E" stroke-width="0.4" mask="url(#path-1-outside-1_130_1570)"/>
<path d="M101.872 29.8384C101.375 29.8384 100.943 29.6668 100.577 29.3235C100.211 28.9802 99.9253 28.4938 99.7204 27.8645C99.5155 27.2351 99.413 26.4912 99.413 25.633C99.413 24.7556 99.5155 23.8116 99.7204 22.8007C99.9253 21.7899 100.233 20.7981 100.643 19.8254C101.052 18.8527 101.55 17.9659 102.136 17.1648C102.721 16.3638 103.395 15.7249 104.156 15.2481C104.932 14.7522 105.781 14.5042 106.703 14.5042C107.259 14.5042 107.859 14.6377 108.503 14.9048C109.147 15.1527 109.726 15.5055 110.238 15.9633L109.843 17.9373C109.125 17.4414 108.489 17.1267 107.932 16.9932C107.376 16.8406 106.864 16.7643 106.395 16.7643C105.766 16.7643 105.188 16.955 104.661 17.3365C104.148 17.7179 103.687 18.2234 103.277 18.8527C102.882 19.4631 102.546 20.1497 102.267 20.9126C101.989 21.6564 101.777 22.4002 101.631 23.144C101.484 23.8879 101.411 24.5649 101.411 25.1752C101.411 25.6521 101.455 26.0716 101.543 26.434C101.631 26.7964 101.755 27.0729 101.916 27.2637C102.092 27.4544 102.289 27.5498 102.509 27.5498C103.051 27.5498 103.665 27.1683 104.353 26.4054C105.041 25.6234 105.773 24.4791 106.549 22.9724C107.34 21.4657 108.145 19.6347 108.964 17.4795L109.777 18.5381C108.825 21.0938 107.881 23.2108 106.944 24.8892C106.022 26.5485 105.137 27.7882 104.287 28.6083C103.438 29.4284 102.633 29.8384 101.872 29.8384ZM108.635 29.8384C107.976 29.8384 107.486 29.6763 107.164 29.3521C106.856 29.0469 106.659 28.656 106.571 28.1791C106.498 27.6833 106.498 27.1683 106.571 26.6343C106.644 26.0812 106.747 25.5758 106.878 25.118L109.338 15.5342C109.44 15.1527 109.557 14.9048 109.689 14.7903C109.835 14.6759 110.048 14.6187 110.326 14.6187C110.779 14.6187 111.065 14.714 111.182 14.9048C111.314 15.0764 111.328 15.353 111.226 15.7344L108.811 25.0894C108.562 26.0812 108.445 26.7678 108.459 27.1492C108.489 27.5116 108.672 27.6928 109.008 27.6928C109.213 27.6928 109.367 27.8072 109.469 28.0361C109.572 28.2459 109.608 28.4938 109.579 28.7799C109.565 29.0469 109.477 29.2853 109.316 29.4951C109.169 29.724 108.942 29.8384 108.635 29.8384Z" stroke="#1E1E1E" stroke-width="0.4" mask="url(#path-1-outside-1_130_1570)"/>
<path d="M108.674 29.8384C108.44 29.8384 108.293 29.724 108.235 29.4951C108.161 29.2853 108.161 29.0469 108.235 28.7799C108.293 28.4938 108.396 28.2459 108.542 28.0361C108.688 27.8072 108.849 27.6928 109.025 27.6928C109.289 27.6928 109.574 27.5593 109.881 27.2923C110.174 27.0253 110.482 26.6343 110.804 26.1193C111.111 25.6044 111.44 24.9845 111.792 24.2598C112.128 23.5159 112.48 22.6768 112.846 21.7422C113.504 20.102 114.09 18.7955 114.602 17.8228C115.129 16.8501 115.612 16.1254 116.051 15.6486C116.491 15.1718 116.908 14.8666 117.303 14.7331C117.713 14.5805 118.123 14.5042 118.533 14.5042C118.679 14.5042 118.774 14.6187 118.818 14.8475C118.862 15.0573 118.855 15.3053 118.796 15.5914C118.737 15.8584 118.635 16.1063 118.489 16.3352C118.357 16.545 118.181 16.6499 117.962 16.6499C117.801 16.6499 117.61 16.7071 117.391 16.8215C117.186 16.9169 116.944 17.1458 116.666 17.5081C116.403 17.8514 116.088 18.3759 115.722 19.0816C115.371 19.7873 114.961 20.7314 114.492 21.9139C113.804 23.7067 113.175 25.1371 112.604 26.2052C112.033 27.2541 111.514 28.0456 111.045 28.5797C110.577 29.0946 110.152 29.4284 109.772 29.581C109.376 29.7526 109.01 29.8384 108.674 29.8384Z" stroke="#1E1E1E" stroke-width="0.4" mask="url(#path-1-outside-1_130_1570)"/>
<path d="M114.075 29.7812C113.841 29.7812 113.621 29.7145 113.417 29.581C113.226 29.4475 113.175 29.1995 113.263 28.8371L116.117 17.3365C116.161 17.1458 116.154 16.9837 116.095 16.8501C116.051 16.7166 115.942 16.6499 115.766 16.6499C115.546 16.6499 115.407 16.545 115.349 16.3352C115.305 16.1063 115.312 15.8584 115.371 15.5914C115.444 15.3053 115.561 15.0573 115.722 14.8475C115.898 14.6187 116.095 14.5042 116.315 14.5042C116.856 14.5042 117.252 14.6377 117.501 14.9048C117.764 15.1527 117.925 15.4865 117.984 15.9061C118.042 16.3066 118.042 16.7357 117.984 17.1934C117.925 17.6512 117.852 18.0708 117.764 18.4522L117.369 19.9971C117.793 19.1198 118.225 18.3378 118.664 17.6512C119.118 16.9646 119.572 16.3924 120.026 15.9347C120.494 15.4579 120.962 15.105 121.431 14.8762C121.899 14.6282 122.368 14.5042 122.836 14.5042C123.612 14.5042 124.168 14.7522 124.505 15.2481C124.856 15.7249 125.025 16.3924 125.01 17.2507C125.01 18.1089 124.871 19.0816 124.593 20.1687L122.353 29.0374C122.28 29.2853 122.17 29.4665 122.024 29.581C121.877 29.7145 121.636 29.7812 121.299 29.7812C121.065 29.7812 120.845 29.7145 120.64 29.581C120.436 29.4475 120.384 29.1995 120.487 28.8371L122.836 19.5107C122.968 19.0149 123.048 18.5667 123.078 18.1661C123.122 17.7465 123.078 17.4128 122.946 17.1648C122.814 16.9169 122.543 16.7929 122.134 16.7929C121.665 16.7929 121.145 17.0695 120.575 17.6226C120.018 18.1757 119.44 18.9576 118.84 19.9685C118.24 20.9602 117.647 22.1427 117.061 23.5159C116.476 24.8701 115.92 26.3577 115.393 27.9789L115.129 29.0374C115.071 29.2853 114.961 29.4665 114.8 29.581C114.653 29.7145 114.412 29.7812 114.075 29.7812ZM130.324 29.8384C129.679 29.8384 129.204 29.6763 128.896 29.3521C128.589 29.0469 128.399 28.656 128.325 28.1791C128.252 27.6833 128.252 27.1683 128.325 26.6343C128.399 26.0812 128.494 25.5758 128.611 25.118L130.082 19.5107C130.214 19.0149 130.294 18.5667 130.324 18.1661C130.367 17.7465 130.324 17.4128 130.192 17.1648C130.06 16.9169 129.789 16.7929 129.379 16.7929C128.896 16.7929 128.362 17.079 127.777 17.6512C127.206 18.2234 126.613 19.0339 125.998 20.0829C125.398 21.1128 124.798 22.3335 124.198 23.7448C123.612 25.1371 123.056 26.6629 122.529 28.3222H121.65C122.236 26.167 122.858 24.2407 123.517 22.5433C124.176 20.8458 124.864 19.3963 125.581 18.1947C126.313 16.9932 127.052 16.0777 127.798 15.4483C128.56 14.8189 129.321 14.5042 130.082 14.5042C130.858 14.5042 131.414 14.7522 131.751 15.2481C132.102 15.7439 132.278 16.421 132.278 17.2793C132.278 18.1185 132.131 19.0816 131.839 20.1687L130.543 25.0894C130.28 26.1003 130.163 26.7869 130.192 27.1492C130.221 27.5116 130.404 27.6928 130.741 27.6928C130.96 27.6928 131.114 27.8072 131.202 28.0361C131.304 28.2459 131.341 28.4938 131.312 28.7799C131.282 29.0469 131.187 29.2853 131.026 29.4951C130.865 29.724 130.631 29.8384 130.324 29.8384Z" stroke="#1E1E1E" stroke-width="0.4" mask="url(#path-1-outside-1_130_1570)"/>
<path d="M130.351 29.8384C130.073 29.8384 129.89 29.724 129.802 29.4951C129.7 29.2853 129.678 29.0469 129.736 28.7799C129.78 28.4938 129.89 28.2459 130.066 28.0361C130.241 27.8072 130.468 27.6928 130.746 27.6928C131.347 27.6928 132.064 27.4735 132.898 27.0348C133.718 26.5961 134.64 25.9381 135.665 25.0608C135.84 24.9082 136.001 24.8796 136.148 24.975C136.294 25.0703 136.404 25.2325 136.477 25.4613C136.565 25.6902 136.594 25.9286 136.565 26.1765C136.536 26.4245 136.441 26.6247 136.28 26.7773C135.416 27.5211 134.618 28.1219 133.886 28.5797C133.14 29.0183 132.474 29.333 131.888 29.5237C131.288 29.7335 130.776 29.8384 130.351 29.8384Z" stroke="#1E1E1E" stroke-width="0.4" mask="url(#path-1-outside-1_130_1570)"/>
<path d="M135.665 25.2611C135.928 25.0513 136.184 24.8319 136.433 24.6031C136.682 24.3742 136.931 24.1453 137.18 23.9165C137.839 23.2871 138.431 22.6386 138.958 21.9711C139.485 21.3035 139.903 20.6455 140.21 19.9971C140.532 19.3486 140.693 18.7478 140.693 18.1947C140.693 17.7561 140.62 17.4128 140.473 17.1648C140.327 16.9169 140.107 16.7929 139.815 16.7929C139.61 16.7929 139.456 16.6785 139.354 16.4496C139.266 16.2208 139.236 15.9537 139.266 15.6486C139.295 15.3434 139.39 15.0764 139.551 14.8475C139.727 14.6187 139.968 14.5042 140.276 14.5042C140.715 14.5042 141.117 14.6282 141.483 14.8762C141.849 15.105 142.135 15.4483 142.34 15.9061C142.559 16.3447 142.669 16.8788 142.669 17.5081C142.669 18.3664 142.457 19.2723 142.032 20.226C141.623 21.1605 141.074 22.0951 140.386 23.0296C139.698 23.9451 138.929 24.8033 138.08 25.6044C137.802 25.8523 137.517 26.1098 137.224 26.3768C136.931 26.6247 136.638 26.8631 136.345 27.092L135.665 25.2611Z" stroke="#1E1E1E" stroke-width="0.4" mask="url(#path-1-outside-1_130_1570)"/>
<path d="M138.571 29.8384C138.087 29.8384 137.663 29.7335 137.297 29.5237C136.916 29.333 136.587 29.0565 136.309 28.6941C136.016 28.3127 135.782 27.874 135.606 27.3781C135.416 26.8822 135.277 26.3482 135.189 25.776C135.101 25.1848 135.057 24.5649 135.057 23.9165C135.057 22.9819 135.153 21.9711 135.343 20.884C135.533 19.7968 135.841 18.7765 136.265 17.8228C136.675 16.8501 137.217 16.0586 137.89 15.4483C138.549 14.8189 139.346 14.5042 140.283 14.5042C140.488 14.5042 140.62 14.6187 140.678 14.8475C140.737 15.0764 140.744 15.3434 140.7 15.6486C140.642 15.9537 140.539 16.2208 140.393 16.4496C140.232 16.6785 140.049 16.7929 139.844 16.7929C139.346 16.7929 138.922 17.0504 138.571 17.5654C138.205 18.0612 137.904 18.6906 137.67 19.4535C137.436 20.2164 137.268 21.0079 137.165 21.828C137.048 22.6291 136.99 23.3443 136.99 23.9737C136.99 24.5077 137.026 25.0036 137.099 25.4613C137.173 25.9 137.29 26.2814 137.451 26.6057C137.612 26.9299 137.831 27.1874 138.109 27.3781C138.388 27.5498 138.724 27.6356 139.119 27.6356C139.764 27.6356 140.43 27.34 141.118 26.7487C141.806 26.1384 142.596 25.1752 143.489 23.8592C144.382 22.5433 145.436 20.8172 146.651 18.6811C146.724 18.5476 146.848 18.5381 147.024 18.6525C147.214 18.7669 147.375 18.9195 147.507 19.1102C147.639 19.2819 147.675 19.4249 147.617 19.5394C146.621 21.4847 145.714 23.125 144.894 24.46C144.089 25.776 143.335 26.8345 142.633 27.6356C141.93 28.4175 141.249 28.9802 140.591 29.3235C139.932 29.6668 139.259 29.8384 138.571 29.8384Z" stroke="#1E1E1E" stroke-width="0.4" mask="url(#path-1-outside-1_130_1570)"/>
<path d="M147.024 29.8384C146.526 29.8384 146.087 29.6668 145.707 29.3235C145.341 28.9802 145.055 28.4938 144.85 27.8645C144.645 27.2351 144.543 26.4912 144.543 25.633C144.543 24.7556 144.645 23.8116 144.85 22.8007C145.055 21.7899 145.363 20.7981 145.772 19.8254C146.182 18.8527 146.68 17.9659 147.266 17.1648C147.866 16.3638 148.546 15.7249 149.308 15.2481C150.069 14.7522 150.918 14.5042 151.855 14.5042C152.279 14.5042 152.733 14.5805 153.216 14.7331C153.714 14.8857 154.189 15.105 154.643 15.3911L158.244 1.22986C158.332 0.848413 158.442 0.600472 158.574 0.486037C158.72 0.371602 158.939 0.314384 159.232 0.314384C159.686 0.314384 159.971 0.409747 160.089 0.600473C160.22 0.772123 160.235 1.04867 160.132 1.43012L153.787 26.4054C153.699 26.8059 153.67 27.1111 153.699 27.3209C153.728 27.5116 153.831 27.607 154.006 27.607C154.153 27.607 154.292 27.5498 154.424 27.4353C154.555 27.3209 154.702 27.1492 154.863 26.9204C155.038 26.6915 155.243 26.3959 155.478 26.0335C155.595 25.8428 155.712 25.7379 155.829 25.7188C155.946 25.6807 156.085 25.7379 156.246 25.8905C156.48 26.0812 156.619 26.2719 156.663 26.4626C156.722 26.6534 156.707 26.8441 156.619 27.0348C156.312 27.6642 155.99 28.1887 155.653 28.6083C155.331 29.0088 154.987 29.3044 154.621 29.4951C154.27 29.6859 153.897 29.7812 153.501 29.7812C152.974 29.7812 152.572 29.6096 152.294 29.2663C152.016 28.923 151.869 28.408 151.855 27.7214C151.84 27.0348 151.95 26.1861 152.184 25.1752C152.199 25.118 152.206 25.0608 152.206 25.0036C152.221 24.9273 152.235 24.8605 152.25 24.8033C151.62 25.9286 150.998 26.8727 150.383 27.6356C149.783 28.3794 149.198 28.9325 148.627 29.2949C148.056 29.6573 147.522 29.8384 147.024 29.8384ZM146.541 25.1752C146.541 25.6521 146.585 26.0716 146.673 26.434C146.761 26.7964 146.885 27.0729 147.046 27.2637C147.222 27.4544 147.419 27.5498 147.639 27.5498C148.151 27.5498 148.744 27.2065 149.417 26.5198C150.091 25.8142 150.801 24.7938 151.547 23.4587C152.308 22.1046 153.077 20.4548 153.853 18.5094L154.116 17.3937C153.618 17.1267 153.15 16.955 152.711 16.8788C152.286 16.8025 151.899 16.7643 151.547 16.7643C150.918 16.7643 150.34 16.955 149.813 17.3365C149.286 17.7179 148.817 18.2234 148.407 18.8527C148.012 19.4631 147.675 20.1497 147.397 20.9126C147.119 21.6564 146.907 22.4002 146.761 23.144C146.614 23.8879 146.541 24.5649 146.541 25.1752Z" stroke="#1E1E1E" stroke-width="0.4" mask="url(#path-1-outside-1_130_1570)"/>
</svg>
